<?xml version="1.0" encoding="UTF-8"?>
<!DOCTYPE svg PUBLIC "-//W3C//DTD SVG 1.1//EN" "http://www.w3.org/Graphics/SVG/1.1/DTD/svg11.dtd">
<!-- Autor = RZ
     Created By: CorelDRAW 2018 (64 Bit) -->
<svg xmlns="http://www.w3.org/2000/svg" xml:space="preserve" width="576.635mm" height="576.635mm" version="1.1" style="shape-rendering:geometricPrecision; text-rendering:geometricPrecision; image-rendering:optimizeQuality; fill-rule:evenodd; clip-rule:evenodd"
viewBox="0 0 57367.92 57367.92"
 xmlns:xlink="http://www.w3.org/1999/xlink">
 <defs>
  <style type="text/css">
   <![CDATA[
    .str0 {stroke:#373435;stroke-width:19.9;stroke-miterlimit:22.9256}
    .str1 {stroke:white;stroke-width:26.32;stroke-miterlimit:22.9256;stroke-opacity:0.254902}
    .str2 {stroke:white;stroke-width:78.97;stroke-miterlimit:22.9256;stroke-dasharray:263.224016 263.224016;stroke-opacity:0.352941}
    .str3 {stroke:white;stroke-width:78.97;stroke-miterlimit:22.9256;stroke-dasharray:263.224016 263.224016;stroke-opacity:0.176471}
    .str4 {stroke:white;stroke-width:78.97;stroke-miterlimit:22.9256}
    .str5 {stroke:white;stroke-width:52.65;stroke-miterlimit:22.9256}
    .str6 {stroke:white;stroke-width:65.81;stroke-miterlimit:22.9256}
    .fil0 {fill:#373435}
    .fil1 {fill:#2A1255;fill-opacity:0.078431}
    .fil2 {fill:#2A1255;fill-opacity:0.149020}
    .fil3 {fill:#2A1255;fill-opacity:0.301961}
    .fil4 {fill:none}
    .fil5 {fill:#6DA8F1;fill-opacity:0.701961}

    .fil6,.fil6_1,.fil6_2,.fil6_3,.fil6_4,.fil6_5 
    {fill:#F8C644;fill-opacity:0.701961}

    .fil7 {fill:#C7969E;fill-opacity:0.701961}
    .fil8 {fill:white;fill-opacity:0.643137}
    .fil9 {fill:#191919;fill-opacity:0.580392}
    .fil10 {fill:none}
    .fil11 {fill:none}
    .fil12 {fill:url(#id0);fill-rule:nonzero}
    
    .fil13,.fil13_1,.fil13_2,.fil13_3,.fil13_4,.fil13_5,.fil13_6,.fil13_7,.fil13_8,.fil13_9,.fil13_10,.fil13_11,.fil13_12,.fil13_13,.fil13_14,.fil13_15,.fil13_16,.fil13_17,.fil13_18,.fil13_19,.fil13_20,.fil13_21,.fil13_22,.fil13_23,.fil13_24,.fil13_25,.fil13_26,.fil13_27,.fil13_28,.fil13_29,.fil13_30,.fil13_31,.fil13_32,.fil13_33,.fil13_34,.fil13_35,.fil13_36,.fil13_37,.fil13_38,.fil13_39,.fil13_40,.fil13_41,.fil13_42,.fil13_43,.fil13_44,.fil13_45,.fil13_46,.fil13_47,.fil13_48,.fil13_49,.fil13_50,.fil13_51,.fil13_52,.fil13_53,.fil13_54,.fil13_55,.fil13_56,.fil13_57,.fil13_58,.fil13_59,.fil13_60,.fil13_61,.fil13_62 
    {fill:white}
    
    .fil14 {fill:url(#id1);fill-rule:nonzero;transform-origin:center;animation: 5s rotate linear infinite}
    .fil15 {fill:white;fill-rule:nonzero;transform-origin:center;animation: 5s rotate linear infinite}
    .fil16 {fill:#6FA6AC}
    .fil17 {fill:none}
    .fil18 {fill:#6464ED}
    .fil19 {fill:#EFBD53;fill-opacity:0.701961}
    .fil20 {fill:#6FA6AC;fill-opacity:0.701961}
    .fil21 {fill:#F29581;fill-opacity:0.701961}
    .fil22 {fill:#6FA6AC;fill-opacity:0.800000}
    .fil23 {fill:white;fill-opacity:0.580392}
    .fil24 {fill:white;fill-opacity:0.294118}
    .fil25 {fill:#745DD0;fill-opacity:0.701961}
    .fil26 {fill:#60A8F7}
    .fil27 {fill:#6DA8F1;fill-opacity:0.749020}

    @keyframes rotate {from {transform: rotate(0deg);}
      to {transform: rotate(360deg);}}
   ]]>
  </style>
  <linearGradient id="id0" gradientUnits="userSpaceOnUse" x1="28704.12" y1="25407.26" x2="28704.12" y2="31658.02">
   <stop offset="0" style="stop-opacity:1; stop-color:#7573AB"/>
   <stop offset="0.301961" style="stop-opacity:1; stop-color:white"/>
   <stop offset="0.611765" style="stop-opacity:1; stop-color:#9D9CCD"/>
   <stop offset="0.819608" style="stop-opacity:1; stop-color:#CFCFE7"/>
   <stop offset="1" style="stop-opacity:1; stop-color:#414065"/>
  </linearGradient>
  <linearGradient id="id1" gradientUnits="userSpaceOnUse" xlink:href="#id0" x1="28704.12" y1="23481.62" x2="28704.12" y2="33418.71">
  </linearGradient>
 </defs>
 <g id="Capa_x0020_1">
  <metadata id="CorelCorpID_0Corel-Layer"/>
  <g id="_1566227222896">
   <rect class="fil0 str0" x="13.16" y="13.17" width="57341.59" height="57332"/>
   <path id="Oval" class="fil1" d="M54208.33 28683.97c0,-14085.59 -11418.62,-25504.21 -25504.21,-25504.21 -14085.58,0 -25504.2,11418.62 -25504.2,25504.21 0,14085.58 11418.62,25504.2 25504.2,25504.2 14085.59,0 25504.21,-11418.62 25504.21,-25504.2z"/>
   <path id="Oval_0" class="fil2" d="M46080.06 28683.97c0,-9596.46 -7779.46,-17375.94 -17375.94,-17375.94 -9596.46,0 -17375.93,7779.47 -17375.93,17375.94 0,9596.46 7779.46,17375.93 17375.93,17375.93 9596.47,0 17375.94,-7779.46 17375.94,-17375.93z"/>
   <path id="Oval_1" class="fil3" d="M39222.47 28694.04c0,-5803.54 -4704.7,-10508.25 -10508.26,-10508.25 -5803.54,0 -10508.26,4704.7 -10508.26,10508.25 0,5803.55 4704.71,10508.26 10508.26,10508.26 5803.55,0 10508.26,-4704.7 10508.26,-10508.26z"/>
   <path id="Oval_2" class="fil4 str1" d="M40836.02 28704.13c0,-6711.4 -5440.66,-12152.06 -12152.06,-12152.06 -6711.4,0 -12152.06,5440.66 -12152.06,12152.06 0,6711.4 5440.66,12152.06 12152.06,12152.06 6711.4,0 12152.06,-5440.66 12152.06,-12152.06z"/>
   <path id="Oval_3" class="fil4 str1" d="M50880.37 28744.47c0,-12258.74 -9937.68,-22196.42 -22196.42,-22196.42 -12258.74,0 -22196.42,9937.68 -22196.42,22196.42 0,12258.74 9937.68,22196.42 22196.42,22196.42 12258.74,0 22196.42,-9937.68 22196.42,-22196.42z"/>
   <path id="Oval_4" class="fil4 str1" d="M28683.96 57354.76c15834.45,0 28670.8,-12836.34 28670.8,-28670.79 0,-15834.45 -12836.35,-28670.8 -28670.8,-28670.8 -15834.45,0 -28670.79,12836.35 -28670.79,28670.8 0,7305.2 2732.12,13972.26 7230.29,19035.15 5251.89,5911.23 12911.25,9635.64 21440.5,9635.64z"/>
   <path id="Oval-Copy-3" class="fil5" d="M29763.02 40825.95c0,-128.1 -103.85,-231.96 -231.95,-231.96 -128.1,0 -231.95,103.85 -231.95,231.96 0,128.09 103.85,231.95 231.95,231.95 128.1,0 231.95,-103.85 231.95,-231.95z"/>
   <path id="Oval-Copy-10" class="fil6" d="M17500.03 32556.49c0,-206.08 -167.06,-373.14 -373.14,-373.14 -206.07,0 -373.13,167.06 -373.13,373.14 0,206.08 167.06,373.14 373.13,373.14 206.08,0 373.14,-167.06 373.14,-373.14z"/>
   <path id="Oval-Copy-10_5" class="fil6_1" d="M32707.76 18932.06c0,-111.39 -90.3,-201.69 -201.7,-201.69 -111.39,0 -201.69,90.3 -201.69,201.69 0,111.39 90.3,201.69 201.69,201.69 111.4,0 201.7,-90.3 201.7,-201.69z"/>
   <path id="Oval-Copy-7" class="fil7" d="M19779.16 20747.31c0,-167.09 -135.44,-302.54 -302.53,-302.54 -167.09,0 -302.54,135.45 -302.54,302.54 0,167.09 135.45,302.53 302.54,302.53 167.09,0 302.53,-135.44 302.53,-302.53z"/>
   <path id="Oval-2" class="fil8" d="M22300.34 19577.48c0,-33.41 -27.1,-60.51 -60.51,-60.51 -33.41,0 -60.51,27.1 -60.51,60.51 0,33.41 27.1,60.51 60.51,60.51 33.41,0 60.51,-27.1 60.51,-60.51z"/>
   <path id="Oval-2_6" class="fil8" d="M35612.14 17358.85c0,-33.41 -27.09,-60.5 -60.5,-60.5 -33.42,0 -60.51,27.09 -60.51,60.5 0,33.42 27.09,60.51 60.51,60.51 33.41,0 60.5,-27.09 60.5,-60.51z"/>
   <path id="Oval_7" class="fil9" d="M36055.87 28643.62c0,-4060.26 -3291.48,-7351.75 -7351.75,-7351.75 -4060.25,0 -7351.74,3291.48 -7351.74,7351.75 0,4060.25 3291.48,7351.74 7351.74,7351.74 4060.26,0 7351.75,-3291.48 7351.75,-7351.74z"/>
   <path id="Oval_8" class="fil10 str2" d="M34644.01 28643.62c0,-3280.51 -2659.38,-5939.89 -5939.89,-5939.89 -3280.5,0 -5939.88,2659.38 -5939.88,5939.89 0,3280.51 2659.38,5939.88 5939.88,5939.88 3280.51,0 5939.89,-2659.37 5939.89,-5939.88z"/>
   <path id="Oval_9" class="fil11 str3" d="M37649.25 28764.65c0,-4940.26 -4004.87,-8945.13 -8945.13,-8945.13 -4940.25,0 -8945.12,4004.87 -8945.12,8945.13 0,4940.25 4004.87,8945.12 8945.12,8945.12 4940.26,0 8945.13,-4004.87 8945.13,-8945.12z"/>
   <path id="Combined-Shape" class="fil12" d="M28198.48 31215.56c-55.23,-11.19 -109.95,-24.24 -164.15,-39.07l-22.66 82.72c56.03,15.33 112.64,28.81 169.75,40.4l17.07 -84.06zm-325.47 -89.12c-53.16,-18.46 -105.65,-38.72 -157.38,-60.69l-33.56 78.93c53.5,22.72 107.77,43.66 162.75,62.76l28.18 -81zm-311.95 -132.59c-50.18,-25.45 -99.51,-52.56 -147.88,-81.3l-43.85 73.72c50.01,29.71 101.01,57.75 152.91,84.07l38.82 -76.49zm-289.76 -172.09c-46.36,-31.9 -91.66,-65.32 -135.81,-100.21l-53.25 67.25c45.64,36.08 92.47,70.64 140.41,103.61l48.65 -70.65zm-266.3 -210.7c-41.71,-37.79 -82.15,-76.94 -121.26,-117.41l-61.73 59.58c40.43,41.82 82.25,82.31 125.35,121.36l57.63 -63.54zm-236.8 -245.36c-36.28,-43.01 -71.11,-87.22 -104.45,-132.54l-69.14 50.8c34.46,46.85 70.48,92.54 107.97,137.01l65.62 -55.28zm-197.4 -267.86c-30.33,-47.38 -59.09,-95.76 -86.2,-145.05l-75.2 41.3c28.03,50.97 57.75,100.99 89.11,149.98l72.29 -46.22zm-163.3 -297.29c-23.7,-50.98 -45.67,-102.75 -65.91,-155.24l-80.08 30.82c20.92,54.29 43.66,107.83 68.15,160.54l77.84 -36.12zm-121.98 -316.98c-16.59,-53.66 -31.38,-107.93 -44.35,-162.72l-83.51 19.75c13.41,56.66 28.71,112.77 45.85,168.27l82.01 -25.3zm-78.22 -331.36c-9.16,-55.35 -16.5,-111.12 -21.98,-167.22l-85.41 8.33c5.66,58 13.24,115.65 22.72,172.89l84.66 -14zm-32.94 -339.96c-0.73,-24.96 -1.11,-49.97 -1.11,-75.02 0,-32.19 0.56,-63.42 1.69,-94.69l-85.76 -3.11c-1.17,32.31 -1.76,64.57 -1.75,97.83 0.01,25.9 0.4,51.74 1.16,77.53l85.77 -2.53zm12.3 -338.16c5.77,-56.08 13.4,-111.79 22.85,-167.09l-84.59 -14.46c-9.77,57.19 -17.65,114.79 -23.62,172.76l85.36 8.78zm57.13 -333.53c13.22,-54.74 28.25,-108.94 45.08,-162.53l-81.88 -25.68c-17.4,55.43 -32.95,111.49 -46.62,168.08l83.42 20.13zm100.86 -321.38c20.41,-52.45 42.59,-104.16 66.46,-155.08l-77.71 -36.39c-24.68,52.66 -47.61,106.14 -68.73,160.37l79.98 31.1zm144.07 -307.04c27.26,-49.19 56.16,-97.45 86.64,-144.69l-72.14 -46.47c-31.51,48.86 -61.38,98.76 -89.57,149.61l75.06 41.56zm184.82 -286.15c33.63,-45.09 68.74,-89.06 105.29,-131.83l-65.25 -55.69c-37.79,44.21 -74.09,89.67 -108.85,136.28l68.82 51.25zm216.45 -253.71c39.25,-40.31 79.82,-79.32 121.64,-116.96l-57.42 -63.74c-43.23,38.9 -85.16,79.22 -125.72,120.9l61.5 59.8zm252.19 -226.71c44.26,-34.76 89.67,-68.04 136.15,-99.78l-48.42 -70.81c-48.04,32.8 -94.99,67.2 -140.74,103.14l53.02 67.44zm280.59 -191.42c48.51,-28.53 97.96,-55.43 148.27,-80.66l-38.48 -76.65c-52.03,26.09 -103.16,53.9 -153.3,83.39l43.52 73.92zm304.34 -152.38c51.85,-21.73 104.45,-41.72 157.73,-59.92l-27.79 -81.14c-55.09,18.83 -109.49,39.51 -163.11,61.97l33.17 79.09zm323.14 -110.2c54.29,-14.48 109.11,-27.16 164.41,-37.99l-16.52 -84.16c-57.19,11.21 -113.88,24.31 -170.01,39.3l22.13 82.85zm328.28 -64.57c55.66,-7.15 111.69,-12.48 168.03,-15.95l-5.28 -85.6c-58.23,3.59 -116.15,9.09 -173.71,16.5l10.95 85.05zm331.05 -20.8c56.52,0.1 112.8,2.06 168.79,5.84l5.79 -85.57c-57.86,-3.91 -116.03,-5.93 -174.41,-6.03l-0.17 85.76zm336.91 22.83c55.84,7.53 111.32,16.89 166.3,28.1l17.13 -84.04c-56.87,-11.58 -114.22,-21.27 -171.96,-29.05l-11.47 84.99zm332.05 67.71c54.33,14.95 108.08,31.72 161.18,50.24l28.29 -80.97c-54.92,-19.16 -110.5,-36.49 -166.69,-51.95l-22.78 82.68zm318.24 111.02c51.78,22.07 102.8,45.85 152.97,71.32l38.86 -76.48c-51.87,-26.32 -104.62,-50.92 -158.18,-73.73l-33.66 78.88zm302.67 153.79c48.33,28.8 95.7,59.21 142,91.16l48.76 -70.58c-47.87,-33.03 -96.84,-64.47 -146.81,-94.24l-43.94 73.66zm280.74 194.03c44.03,35.03 86.88,71.5 128.5,109.37l57.78 -63.41c-43.02,-39.15 -87.32,-76.85 -132.84,-113.06l-53.44 67.1zm246.12 223.51c39.1,40.48 76.85,82.25 113.19,125.21l65.54 -55.35c-37.56,-44.42 -76.58,-87.59 -117,-129.42l-61.73 59.56zm218.9 259.13c33.36,45.3 65.19,91.7 95.46,139.11l72.36 -46.13c-31.3,-49.02 -64.21,-96.98 -98.7,-143.81l-69.11 50.83zm182.79 286.7c26.97,49.34 52.3,99.57 75.91,150.61l77.9 -35.99c-24.42,-52.79 -50.61,-104.73 -78.5,-155.74l-75.31 41.12zm142.77 309.13c20.06,52.49 38.35,105.69 54.87,159.5l82.05 -25.14c-17.08,-55.65 -35.99,-110.66 -56.74,-164.95l-80.18 30.59zm99.82 326.31c12.73,54.68 23.65,109.85 32.73,165.46l84.69 -13.81c-9.38,-57.49 -20.67,-114.54 -33.85,-171.08l-83.58 19.43zm53.3 322.21c5.56,55.8 9.27,111.93 11.14,168.31l85.78 -2.84c-1.94,-58.28 -5.78,-116.29 -11.53,-173.97l-85.39 8.5zm11.17 338.15c-1.85,56.38 -5.55,112.5 -11.09,168.29l85.4 8.48c5.72,-57.68 9.55,-115.68 11.46,-173.96l-85.77 -2.81zm-33.39 335.78c-9.29,55.58 -20.43,110.73 -33.4,165.37l83.51 19.78c13.4,-56.5 24.92,-113.54 34.53,-171l-84.64 -14.15zm-78.51 330.34c-16.67,53.72 -35.14,106.83 -55.36,159.23l80.08 30.85c20.91,-54.19 40,-109.11 57.26,-164.67l-81.97 -25.41zm-120.98 313.72c-23.71,51.02 -49.12,101.21 -76.17,150.51l75.25 41.24c27.97,-50.98 54.23,-102.87 78.75,-155.63l-77.84 -36.12zm-163.64 297.82c-30.33,47.36 -62.25,93.7 -95.67,138.94l69.03 50.94c34.55,-46.77 67.54,-94.68 98.91,-143.64l-72.28 -46.24zm-200.83 271.78c-36.37,42.93 -74.16,84.63 -113.3,125.07l61.68 59.62c40.45,-41.77 79.51,-84.9 117.11,-129.26l-65.49 -55.42zm-233.35 241.2c-41.71,37.77 -84.63,74.13 -128.74,109.05l53.3 67.22c45.59,-36.09 89.97,-73.69 133.06,-112.73l-57.62 -63.54zm-266.16 210.54c-46.36,31.88 -93.77,62.21 -142.15,90.93l43.84 73.73c50,-29.7 99.02,-61.06 146.94,-94.02l-48.64 -70.65zm-292.58 173.49c-50.21,25.37 -101.25,49.06 -153.07,71.02l33.52 78.95c53.58,-22.71 106.36,-47.21 158.26,-73.44l-38.71 -76.54zm-313.77 132.75c-53.14,18.34 -106.91,34.91 -161.26,49.67l22.51 82.76c56.21,-15.27 111.81,-32.41 166.76,-51.39l-28.02 -81.05z"/>
   <path id="Rectangle-2" class="fil13" d="M29039.52 31047.29l0 -146.07c0,-110.04 -115.41,-199.2 -257.78,-199.2 -142.41,0 -257.79,89.18 -257.79,199.2l0 146.07 85.94 0 0 -146.07c0,-56.68 72.73,-112.89 171.85,-112.89 99.12,0 171.85,56.21 171.85,112.89l0 146.07 42.97 0 42.96 0zm0 0l0 -146.07c0,-110.04 -115.41,-199.2 -257.78,-199.2 -142.41,0 -257.79,89.18 -257.79,199.2l0 146.07 85.94 0 0 -146.07c0,-56.68 72.73,-112.89 171.85,-112.89 99.12,0 171.85,56.21 171.85,112.89l0 146.07 85.93 0z"/>
   <path id="Rectangle" class="fil13_1" d="M28523.95 31478.9l515.57 0 0 -258.97 -515.57 0 0 258.97zm-85.93 -345.28l687.44 0 0 431.6 -687.44 0 0 -431.6z"/>
   <path id="Combined-Shape_10" class="fil14" d="M24665.42 28728.57c0,-285 29.57,-566.07 87.66,-840.06l-52.23 -156.13c-79.28,319.01 -121.35,652.7 -121.35,996.19 0,1290.97 594.32,2443.27 1524.55,3198.76l-52.21 -156.08c-873.23,-759.91 -1386.41,-1859.19 -1386.41,-3042.69zm0 0c0,-285 29.57,-566.07 87.66,-840.06l-52.23 -156.13c-79.28,319.01 -121.35,652.7 -121.35,996.19 0,1290.97 594.32,2443.27 1524.55,3198.76l-52.21 -156.08c-873.23,-759.91 -1386.41,-1859.19 -1386.41,-3042.69zm6219.25 3498.17c-632.61,394.34 -1379.94,622.21 -2180.54,622.21 -800.61,0 -1547.94,-227.88 -2180.54,-622.21l167 0c606.69,349.32 1296.21,536.37 2013.54,536.37 717.31,0 1406.82,-187.05 2013.54,-536.37l167 0zm0 0c-632.61,394.34 -1379.94,622.21 -2180.54,622.21 -800.61,0 -1547.94,-227.88 -2180.54,-622.21l167 0c606.69,349.32 1296.21,536.37 2013.54,536.37 717.31,0 1406.82,-187.05 2013.54,-536.37l167 0zm1822.73 -4494.36c79.29,319.01 121.37,652.7 121.37,996.19 0,1290.97 -594.32,2443.27 -1524.55,3198.76l52.2 -156.08c873.23,-759.91 1386.41,-1859.19 1386.41,-3042.69 0,-285 -29.57,-566.07 -87.65,-840.06l52.21 -156.13zm0 0c79.29,319.01 121.37,652.7 121.37,996.19 0,1290.97 -594.32,2443.27 -1524.55,3198.76l52.2 -156.08c873.23,-759.91 1386.41,-1859.19 1386.41,-3042.69 0,-285 -29.57,-566.07 -87.65,-840.06l52.21 -156.13zm-280.89 -571.84l131.29 96.1c-565.31,-1476.11 -1956.06,-2544.37 -3608.13,-2641.26l131.12 95.99c1487.91,137.74 2771.06,1088.62 3345.71,2449.17zm0 0l131.29 96.1c-565.31,-1476.11 -1956.06,-2544.37 -3608.13,-2641.26l131.12 95.99c1487.91,137.74 2771.06,1088.62 3345.71,2449.17zm-7576.05 96.1c565.32,-1476.11 1956.06,-2544.37 3608.12,-2641.26l-131.11 95.99c-1487.91,137.74 -2771.06,1088.62 -3345.71,2449.17l-131.29 96.1zm0 0c565.32,-1476.11 1956.06,-2544.37 3608.12,-2641.26l-131.11 95.99c-1487.91,137.74 -2771.06,1088.62 -3345.71,2449.17l-131.29 96.1z"/>
   <path id="Oval-16" class="fil15" d="M28704.13 24867.74c94.91,0 171.85,-76.9 171.85,-171.77 0,-94.87 -76.94,-171.78 -171.85,-171.78 -94.92,0 -171.86,76.9 -171.86,171.78 0,94.86 76.94,171.77 171.86,171.77zm0 85.89c-142.38,0 -257.79,-115.36 -257.79,-257.65 0,-142.31 115.42,-257.66 257.79,-257.66 142.37,0 257.78,115.36 257.78,257.66 0,142.3 -115.42,257.65 -257.78,257.65zm3866.85 2735.42c94.91,0 171.85,-76.91 171.85,-171.78 0,-94.87 -76.94,-171.78 -171.85,-171.78 -94.92,0 -171.86,76.9 -171.86,171.78 0,94.86 76.94,171.78 171.86,171.78zm0 85.89c-142.38,0 -257.79,-115.37 -257.79,-257.66 0,-142.31 115.42,-257.66 257.79,-257.66 142.37,0 257.79,115.36 257.79,257.66 0,142.3 -115.43,257.66 -257.79,257.66zm-1477.01 4479.06c94.91,0 171.86,-76.89 171.86,-171.77 0,-94.87 -76.95,-171.78 -171.86,-171.78 -94.91,0 -171.86,76.9 -171.86,171.78 0,94.87 76.95,171.77 171.86,171.77zm0 85.9c-142.37,0 -257.79,-115.37 -257.79,-257.66 0,-142.3 115.43,-257.66 257.79,-257.66 142.38,0 257.79,115.37 257.79,257.66 0,142.3 -115.42,257.66 -257.79,257.66zm-4779.7 -85.9c94.93,0 171.86,-76.89 171.86,-171.77 0,-94.87 -76.93,-171.78 -171.86,-171.78 -94.91,0 -171.85,76.9 -171.85,171.78 0,94.87 76.94,171.77 171.85,171.77zm0 85.9c-142.37,0 -257.78,-115.37 -257.78,-257.66 0,-142.3 115.42,-257.66 257.78,-257.66 142.38,0 257.8,115.37 257.8,257.66 0,142.3 -115.43,257.66 -257.8,257.66zm-1477 -4650.84c94.92,0 171.86,-76.91 171.86,-171.78 0,-94.87 -76.94,-171.78 -171.86,-171.78 -94.91,0 -171.85,76.9 -171.85,171.78 0,94.86 76.94,171.78 171.85,171.78zm0 85.89c-142.38,0 -257.78,-115.37 -257.78,-257.66 0,-142.31 115.41,-257.66 257.78,-257.66 142.38,0 257.79,115.36 257.79,257.66 0,142.3 -115.42,257.66 -257.79,257.66z"/>
   <g>
    <circle id="Oval-Copy-2" class="fil16" cx="3331.03" cy="26223.29" r="1381.6"/>
    <path id="Path-9" class="fil17 str4" d="M2292.3 26207.02l0 329c0,33.37 27.21,60.42 60.32,60.42l1913.23 0c33.31,0 68.97,-25.49 78.2,-57.88 0,0 70.07,-169.81 -20.82,-304 -90.89,-134.2 -703.79,-185.31 -965.13,-466.89 -261.33,-281.6 -418.23,-168.9 -516.28,-84.45 -98.05,84.45 -125.52,126.04 -264.8,75.99 -139.27,-50.06 -217.82,-142.02 -251.27,-32.82 -33.46,109.19 -33.46,480.65 -33.46,480.65z"/>
    <path id="Path-10" class="fil17 str5" d="M2312.47 26576.25l142.89 0c16.63,0 30.12,-13.43 30.12,-30.25l0 0c0,-16.7 13.67,-30.25 30.42,-30.25l310.88 0c16.79,0 30.41,13.67 30.41,30.15l0 -1.37c0,16.65 13.44,30.15 30.32,30.15l1421.71 0"/>
    <path id="Path-11" class="fil17 str4" d="M3969.23 26213.2l-72.78 77.22c-15.32,16.26 -12.68,39.43 5.88,51.75l3.74 2.48c18.57,12.33 48.52,12.37 67.18,-0.1l134.28 -89.7"/>
    <path id="Path-12" class="fil17 str4" d="M2312.47 26167.27c0,0 594.6,173.45 771.71,200.12 177.13,26.68 520.6,-13.2 599.81,-255.03"/>
    <circle id="Oval-2_11" class="fil17 str4" cx="3149.5" cy="25860.25" r="30.26"/>
    <circle id="Oval-2_12" class="fil17 str4" cx="3270.52" cy="25961.09" r="30.26"/>
    <circle id="Oval-2_13" class="fil17 str4" cx="3371.36" cy="26061.94" r="30.26"/>
    <circle id="Oval-2_14" class="fil17 str4" cx="3492.38" cy="26142.61" r="30.26"/>
    <circle id="Oval-2_15" class="fil17 str4" cx="3774.75" cy="26243.47" r="30.26"/>
    <path id="Combined-Shape_16" class="fil17 str4" d="M2937.73 25749.31c-69.09,68.8 -73.57,142.85 -73.57,259.09 0,116.58 -134.75,133.37 -210.54,120.45 -75.78,-12.92 -297.34,-106.76 -297.34,-106.76l-23.64 -33.22 0 0"/>
    <path id="Rectangle-3" class="fil17 str4" d="M2272.13 25749.31c0,0 0,0 0,0l0 0z"/>
   </g>
   <path id="Shape" class="fil13_2" d="M28959.45 28977.94c14.72,0 26.41,2.87 41.14,5.88l96.85 -166.06c-29.31,-29.09 -46.92,-69.93 -46.92,-113.62 0,-43.7 17.61,-84.52 46.92,-113.61l-96.85 -166.06c-11.7,2.87 -26.41,5.87 -41.14,5.87 -76.35,0 -140.86,-49.57 -158.47,-119.49l-193.69 0c-20.49,69.92 -82.13,119.49 -158.48,119.49 -14.71,0 -29.29,-2.87 -41.13,-5.87l-96.85 166.06c29.31,29.09 46.92,69.91 46.92,113.61 0,43.69 -17.61,84.53 -46.92,113.62l96.85 166.06c11.69,-2.88 26.41,-5.88 41.13,-5.88 76.36,0 140.87,49.57 158.48,119.49l193.69 0c20.49,-70.06 82.13,-119.49 158.47,-119.49z"/>
   <path id="Shape_17" class="fil13_3" d="M29166.88 29392.58c11.63,-2.88 26.27,-5.89 40.93,-5.89 14.64,0 29.16,2.88 40.93,5.89l332.77 -581.65c-20.4,-20.41 -32.17,-43.84 -40.93,-70.15 -2.89,-14.66 -5.9,-29.18 -5.9,-43.85 0,-14.65 2.88,-29.18 5.9,-43.84 8.75,-26.3 20.38,-52.62 40.93,-70.15l-332.91 -581.65c-23.41,5.89 -46.67,5.89 -72.95,2.89 -2.88,0 -5.89,0 -8.76,-2.89 -29.15,-8.76 -55.43,-23.43 -75.97,-43.84 -5.89,-5.9 -14.64,-14.66 -20.39,-23.43 -8.75,-14.66 -17.52,-32.2 -20.39,-46.72l-668.67 0c-8.76,26.3 -20.39,49.73 -40.93,70.15 -8.76,8.76 -17.52,14.66 -26.27,20.41 -14.65,11.64 -32.17,17.54 -49.7,23.43 -26.27,5.89 -55.43,5.89 -81.71,0l-335.77 578.78c5.88,5.89 14.64,14.66 20.39,23.43 8.76,14.65 17.52,32.19 20.39,46.72 8.75,29.19 8.75,61.39 0,87.7 -5.89,26.3 -20.39,49.74 -40.93,70.16l335.77 578.77c23.41,-5.89 46.67,-5.89 72.95,-2.88 2.88,0 5.89,2.88 8.76,2.88 29.15,8.76 55.43,23.43 75.97,43.84 5.88,5.89 14.64,14.66 20.39,23.43 8.76,14.66 17.52,32.2 20.39,46.72l668.81 0c8.75,-26.3 20.38,-49.73 40.93,-70.15 20.38,-14.66 46.67,-32.2 75.97,-38.08l-0.01 -0.01zm-706.73 -90.57c-14.64,0 -29.15,-2.88 -40.93,-5.89 -29.15,-8.76 -55.43,-23.43 -75.96,-43.84 -29.16,-29.19 -46.68,-70.15 -46.68,-114 0,-43.84 17.52,-84.81 46.68,-114l-96.37 -166.61c-11.63,2.88 -26.27,5.89 -40.93,5.89 -75.97,0 -140.17,-49.74 -157.68,-119.89 -2.88,-14.66 -5.89,-29.18 -5.89,-43.84 0,-14.66 2.88,-29.19 5.89,-43.84 20.38,-70.16 81.71,-119.9 157.68,-119.9 14.65,0 29.16,2.88 40.93,5.9l96.37 -166.62c-29.16,-29.19 -46.68,-70.16 -46.68,-114 0,-43.84 17.52,-84.81 46.68,-114 20.38,-20.41 46.67,-35.07 75.96,-43.84 11.64,-2.88 26.28,-5.89 40.93,-5.89 75.98,0 140.18,49.74 157.7,119.89l192.73 0c20.39,-70.15 81.72,-119.89 157.69,-119.89 14.64,0 26.28,2.88 40.93,5.89 29.16,8.77 55.43,23.43 75.97,43.84 29.16,29.19 46.68,70.16 46.68,114 0,43.84 -17.52,84.82 -46.68,114l96.36 166.62c11.64,-2.89 26.28,-5.9 40.93,-5.9 75.97,0 140.18,49.74 157.69,119.9 2.88,14.65 5.89,29.18 5.89,43.84 0,14.66 -2.88,29.18 -5.89,43.84 -20.39,70.15 -81.72,119.89 -157.69,119.89 -14.64,0 -26.27,-2.88 -40.93,-5.89l-96.36 166.61c29.16,29.19 46.68,70.16 46.68,114 0,43.85 -17.52,84.81 -46.68,114 -20.39,20.41 -46.68,35.08 -75.97,43.84 -11.63,2.89 -26.27,5.89 -40.93,5.89 -75.97,0 -140.17,-49.73 -157.69,-119.88l-192.73 0c-20.39,70.15 -84.73,119.88 -157.7,119.88z"/>
   <path id="Shape_18" class="fil13_4" d="M29545.62 29841.62l581.36 -1006.18c52.58,-93.38 52.58,-207.12 0,-297.49l-581.36 -1006.18c-52.59,-93.38 -151.88,-148.74 -260.07,-148.74l-1162.84 0c-108.05,0 -204.47,58.38 -260.07,148.74l-581.35 1003.31c-52.6,93.37 -52.6,207.11 0,297.48l581.35 1003.31c52.59,93.37 151.88,148.74 260.07,148.74l1165.71 -0.14c105.18,5.88 204.61,-52.5 257.19,-142.86l0.01 0zm-1238.85 -166.23c-76.01,49.62 -178.17,29.12 -227.89,-43.75 -17.53,-29.12 -29.17,-61.24 -29.17,-90.36 0,-40.87 17.53,-84.62 46.7,-113.74l-335.94 -580.47c-64.23,17.5 -137.36,-8.74 -178.17,-67.12 -20.4,-29.12 -29.17,-61.24 -29.17,-90.36 0,-52.49 26.29,-104.99 72.99,-137.11 40.95,-26.25 87.65,-35 131.47,-23.38l338.81 -580.19c-5.89,-5.88 -14.65,-14.63 -20.4,-23.38 -17.53,-29.12 -29.17,-61.24 -29.17,-90.36 0,-52.5 26.29,-104.99 72.99,-137.12 76.01,-49.62 178.17,-29.12 227.89,43.75 8.75,14.62 17.53,32.12 20.4,46.61l674.89 0c11.64,-37.86 35.05,-69.99 67.24,-93.37 76,-49.63 178.16,-29.12 227.88,43.74 43.82,67.13 35.06,151.61 -20.4,207.12l333.06 577.46c11.64,-2.87 26.28,-5.88 40.95,-5.88 90.52,0 163.65,72.86 163.65,163.37 0,90.36 -72.98,163.37 -163.65,163.37 -14.66,0 -29.17,-2.88 -40.95,-5.87l-335.94 577.46c29.17,29.12 46.7,69.99 46.7,113.74 0,90.36 -72.99,163.37 -163.66,163.37 -76.01,0 -137.36,-49.62 -157.77,-119.62l-668.99 0c-8.76,46.75 -32.18,78.73 -64.37,102.12l0 0z"/>
   <path id="Oval-Copy" class="fil6_2" d="M50033.26 18921.97c0,-763.04 -618.55,-1381.59 -1381.59,-1381.59 -763.04,0 -1381.6,618.55 -1381.6,1381.59 0,763.04 618.56,1381.6 1381.6,1381.6 763.04,0 1381.59,-618.56 1381.59,-1381.6z"/>
   <path id="Rectangle-2_19" class="fil17 str5" d="M48586.84 19044.43l0 -121.9c0,-91.81 80.59,-166.23 180.07,-166.23 99.47,0 180.09,74.41 180.09,166.23l0 121.9"/>
   <rect id="Rectangle_20" class="fil17 str5" x="48514.8" y="19080.45" width="504.24" height="396.19"/>
   <rect id="Rectangle_21" class="fil17 str5" x="48586.83" y="19152.48" width="360.17" height="252.12"/>
   <line id="Path-2" class="fil17 str5" x1="48766.91" y1="19260.53" x2="48766.91" y2= "19368.58" />
   <circle id="Combined-Shape_22" class="fil17 str5" cx="48766.91" cy="19242.53" r="36.01"/>
   <path id="Combined-Shape_23" class="fil17 str4" d="M48507.83 18900.37l-204.61 0c-44.29,0 -131.04,38.57 -131.04,38.57 -36.98,21.29 -79.88,33.46 -125.6,33.46 -139.24,0 -252.12,-112.87 -252.12,-252.11 0,-139.24 112.88,-252.12 252.12,-252.12 93.28,0 174.73,50.66 218.34,125.97 12.88,29.89 114.89,54.11 114.89,54.11 339.17,0 678.34,0 1017.51,0 69.56,0 125.96,56.58 125.96,126.06 0,69.62 -56.49,126.06 -125.96,126.06l-402.06 0"/>
   <path id="Oval-Copy-3_24" class="fil5" d="M56547.98 20374.17c0,-206.08 -167.06,-373.14 -373.13,-373.14 -206.08,0 -373.14,167.06 -373.14,373.14 0,206.08 167.06,373.14 373.14,373.14 206.07,0 373.13,-167.06 373.13,-373.14z"/>
   <path id="Oval-Copy-3_25" class="fil5" d="M18407.64 9220.5c0,-128.1 -103.85,-231.96 -231.95,-231.96 -128.1,0 -231.95,103.85 -231.95,231.96 0,128.09 103.85,231.95 231.95,231.95 128.1,0 231.95,-103.85 231.95,-231.95z"/>
   <path id="Oval-Copy-3_26" class="fil5" d="M6769.91 28926c0,-128.1 -103.85,-231.96 -231.95,-231.96 -128.1,0 -231.95,103.85 -231.95,231.96 0,128.09 103.85,231.95 231.95,231.95 128.1,0 231.95,-103.85 231.95,-231.95z"/>
   <path id="Oval-Copy-3_27" class="fil5" d="M10259.21 40563.74c0,-206.08 -167.06,-373.14 -373.14,-373.14 -206.07,0 -373.13,167.06 -373.13,373.14 0,206.08 167.06,373.14 373.13,373.14 206.08,0 373.14,-167.06 373.14,-373.14z"/>
   <circle id="Oval-Copy-10_28" class="fil18" cx="43246.26" cy="11963.53" r="373.13"/>
   <path id="Oval-Copy-13" class="fil6_3" d="M49266.82 8544.82c0,-100.24 -81.27,-181.51 -181.51,-181.51 -100.25,0 -181.52,81.27 -181.52,181.51 0,100.25 81.27,181.52 181.52,181.52 100.24,0 181.51,-81.27 181.51,-181.52z"/>
   <path id="Oval-Copy-10_29" class="fil6_4" d="M51848.51 39847.73c0,-111.39 -90.3,-201.69 -201.69,-201.69 -111.39,0 -201.69,90.3 -201.69,201.69 0,111.39 90.3,201.69 201.69,201.69 111.39,0 201.69,-90.3 201.69,-201.69z"/>
   <path id="Oval-Copy-4" class="fil6_5" d="M4611.78 13637.59c0,-206.07 -167.06,-373.13 -373.14,-373.13 -206.07,0 -373.13,167.06 -373.13,373.13 0,206.08 167.06,373.14 373.13,373.14 206.08,0 373.14,-167.06 373.14,-373.14z"/>
   <path id="Oval-Copy-6" class="fil19" d="M42610.92 50245.05c0,-206.07 -167.06,-373.13 -373.13,-373.13 -206.08,0 -373.14,167.06 -373.14,373.13 0,206.08 167.06,373.14 373.14,373.14 206.07,0 373.13,-167.06 373.13,-373.14z"/>
   <path id="Oval-Copy-7_30" class="fil7" d="M45595.99 33575.05c0,-122.54 -99.33,-221.87 -221.87,-221.87 -122.53,0 -221.86,99.33 -221.86,221.87 0,122.53 99.33,221.86 221.86,221.86 122.54,0 221.87,-99.33 221.87,-221.86z"/>
   <path id="Oval-Copy-7_31" class="fil7" d="M24276.94 45434.65c0,-100.24 -81.27,-181.51 -181.51,-181.51 -100.25,0 -181.52,81.27 -181.52,181.51 0,100.25 81.27,181.52 181.52,181.52 100.24,0 181.51,-81.27 181.51,-181.52z"/>
   <path id="Oval-Copy-7_32" class="fil7" d="M8827.19 19153.93c0,-100.25 -81.27,-181.52 -181.52,-181.52 -100.25,0 -181.52,81.27 -181.52,181.52 0,100.24 81.27,181.51 181.52,181.51 100.25,0 181.52,-81.27 181.52,-181.51z"/>
   <path id="Oval-Copy-7_33" class="fil7" d="M29057.09 6558.14c0,-206.08 -167.06,-373.14 -373.14,-373.14 -206.08,0 -373.14,167.06 -373.14,373.14 0,206.08 167.06,373.14 373.14,373.14 206.08,0 373.14,-167.06 373.14,-373.14z"/>
   <path id="Oval-Copy-8" class="fil20" d="M52130.89 45686.77c0,-206.07 -167.06,-373.14 -373.14,-373.14 -206.08,0 -373.14,167.07 -373.14,373.14 0,206.08 167.06,373.14 373.14,373.14 206.08,0 373.14,-167.06 373.14,-373.14z"/>
   <path id="Oval-Copy-8_34" class="fil21" d="M7334.65 47552.44c0,-111.39 -90.3,-201.69 -201.69,-201.69 -111.39,0 -201.69,90.3 -201.69,201.69 0,111.39 90.3,201.69 201.69,201.69 111.39,0 201.69,-90.3 201.69,-201.69z"/>
   <circle id="Oval-Copy-8_35" class="fil16" cx="11378.61" cy="9906.25" r="171.44"/>
   <path id="Oval-Copy-11" class="fil22" d="M45091.76 22491.95c0,-105.82 -85.79,-191.6 -191.61,-191.6 -105.82,0 -191.6,85.78 -191.6,191.6 0,105.82 85.78,191.61 191.6,191.61 105.82,0 191.61,-85.79 191.61,-191.61z"/>
   <path id="Oval-Copy-11_36" class="fil22" d="M16794.1 51132.5c0,-105.82 -85.79,-191.6 -191.6,-191.6 -105.82,0 -191.61,85.78 -191.61,191.6 0,105.82 85.79,191.61 191.61,191.61 105.81,0 191.6,-85.79 191.6,-191.61z"/>
   <path id="Oval-Copy-11_37" class="fil22" d="M1929.25 38445.96c0,-105.82 -85.79,-191.6 -191.6,-191.6 -105.82,0 -191.61,85.78 -191.61,191.6 0,105.82 85.79,191.6 191.61,191.6 105.81,0 191.6,-85.78 191.6,-191.6z"/>
   <circle id="Oval-2_38" class="fil13_5" cx="44426.17" cy="15785.64" r="60.5"/>
   <circle id="Oval-2_39" class="fil13_6" cx="46473.37" cy="10571.85" r="90.76"/>
   <path id="Oval-2_40" class="fil23" d="M51747.65 24660.16c0,-33.41 -27.09,-60.5 -60.5,-60.5 -33.42,0 -60.51,27.09 -60.51,60.5 0,33.42 27.09,60.51 60.51,60.51 33.41,0 60.5,-27.09 60.5,-60.51z"/>
   <path id="Oval-2_41" class="fil23" d="M43316.86 25668.64c0,-33.41 -27.09,-60.51 -60.51,-60.51 -33.41,0 -60.5,27.1 -60.5,60.51 0,33.41 27.09,60.51 60.5,60.51 33.42,0 60.51,-27.1 60.51,-60.51z"/>
   <path id="Oval-2_42" class="fil8" d="M41461.26 35148.26c0,-33.41 -27.09,-60.5 -60.5,-60.5 -33.42,0 -60.51,27.09 -60.51,60.5 0,33.42 27.09,60.51 60.51,60.51 33.41,0 60.5,-27.09 60.5,-60.51z"/>
   <path id="Oval-2_43" class="fil8" d="M42469.74 43216.02c0,-33.41 -27.09,-60.51 -60.51,-60.51 -33.41,0 -60.5,27.1 -60.5,60.51 0,33.41 27.09,60.51 60.5,60.51 33.42,0 60.51,-27.1 60.51,-60.51z"/>
   <path id="Oval-2_44" class="fil8" d="M41521.78 48702.09c0,-33.41 -27.1,-60.51 -60.51,-60.51 -33.41,0 -60.51,27.1 -60.51,60.51 0,33.41 27.1,60.51 60.51,60.51 33.41,0 60.51,-27.1 60.51,-60.51z"/>
   <circle id="Oval-2_45" class="fil13_7" cx="51485.46" cy="50678.69" r="60.5"/>
   <circle id="Oval-2_46" class="fil13_8" cx="55721.04" cy="43216.01" r="60.5"/>
   <path id="Oval-2_47" class="fil8" d="M35813.84 42610.93c0,-33.41 -27.09,-60.51 -60.51,-60.51 -33.41,0 -60.5,27.1 -60.5,60.51 0,33.41 27.09,60.51 60.5,60.51 33.42,0 60.51,-27.1 60.51,-60.51z"/>
   <circle id="Oval-2_48" class="fil13_9" cx="55115.96" cy="15382.25" r="60.5"/>
   <circle id="Oval-2_49" class="fil13_10" cx="53704.09" cy="5499.24" r="60.5"/>
   <circle id="Oval-2_50" class="fil13_11" cx="45434.64" cy="4692.46" r="60.5"/>
   <circle id="Oval-2_51" class="fil13_12" cx="36560.11" cy="8524.65" r="60.5"/>
   <circle id="Oval-2_52" class="fil13_13" cx="32929.62" cy="5902.63" r="60.5"/>
   <circle id="Oval-2_53" class="fil13_14" cx="21634.75" cy="5095.85" r="60.5"/>
   <circle id="Oval-2_54" class="fil13" cx="7717.87" cy="7274.15" r="60.5"/>
   <path id="Oval-2_55" class="fil24" d="M1324.17 6063.98c0,-33.41 -27.09,-60.5 -60.51,-60.5 -33.41,0 -60.5,27.09 -60.5,60.5 0,33.42 27.09,60.51 60.5,60.51 33.42,0 60.51,-27.09 60.51,-60.51z"/>
   <circle id="Oval-2_56" class="fil13_15" cx="9129.73" cy="14736.82" r="60.5"/>
   <circle id="Oval-2_57" class="fil13_16" cx="9734.81" cy="26031.69" r="60.5"/>
   <circle id="Oval-2_58" class="fil13_17" cx="4692.46" cy="31880.82" r="60.5"/>
   <circle id="Oval-2_59" class="fil13_18" cx="1465.36" cy="14131.74" r="60.5"/>
   <circle id="Oval-2_60" class="fil13_19" cx="11388.7" cy="37145.02" r="60.5"/>
   <path id="Oval-2_61" class="fil8" d="M25325.75 41965.51c0,-33.41 -27.09,-60.5 -60.51,-60.5 -33.41,0 -60.5,27.09 -60.5,60.5 0,33.42 27.09,60.51 60.5,60.51 33.42,0 60.51,-27.09 60.51,-60.51z"/>
   <circle id="Oval-2_62" class="fil13_20" cx="28694.04" cy="47612.95" r="60.5"/>
   <circle id="Oval-2_63" class="fil13_21" cx="31114.37" cy="51646.82" r="60.5"/>
   <circle id="Oval-2_64" class="fil13_22" cx="14656.14" cy="30065.57" r="60.5"/>
   <circle id="Oval-2_65" class="fil13_23" cx="14454.45" cy="13728.36" r="60.5"/>
   <circle id="Oval-2_66" class="fil13_24" cx="16390.71" cy="48823.11" r="60.5"/>
   <circle id="Oval-2_67" class="fil13_25" cx="3482.29" cy="45999.39" r="60.5"/>
   <circle id="Oval-2_68" class="fil13_26" cx="6306.01" cy="51848.52" r="60.5"/>
   <circle id="Oval-2_69" class="fil13_27" cx="1061.96" cy="36923.16" r="60.5"/>
   <g>
    <path id="Oval-Copy-12" class="fil21" d="M17419.35 40684.75c0,-763.04 -618.55,-1381.59 -1381.59,-1381.59 -763.04,0 -1381.6,618.55 -1381.6,1381.59 0,763.04 618.56,1381.6 1381.6,1381.6 763.04,0 1381.59,-618.56 1381.59,-1381.6z"/>
    <path id="Combined-Shape_70" class="fil17 str5" d="M16214.23 40200.69l-953 0 0 635.35 953 0m317.67 -635.35l105.88 0 0 635.35 -105.88 0"/>
    <path id="Combined-Shape_71" class="fil17 str5" d="M16284.83 41005.54c-63.3,36.62 -105.89,105.07 -105.89,183.45 0,116.96 94.82,211.78 211.78,211.78 116.97,0 211.79,-94.82 211.79,-211.78 0,-78.39 -42.59,-146.83 -105.89,-183.45l0 -910.75c0,-58.39 -47.41,-105.87 -105.89,-105.87 -58.36,0 -105.88,47.4 -105.88,105.87l0 910.75z"/>
    <path id="Combined-Shape_72" class="fil17 str5" d="M16355.42 41052.26c-60.89,15.67 -105.88,70.94 -105.88,136.74 0,77.98 63.21,141.18 141.18,141.18 77.98,0 141.19,-63.2 141.19,-141.18 0,-65.79 -45,-121.07 -105.88,-136.74l0 -674.98c0,-19.54 -15.81,-35.4 -35.31,-35.4 -19.63,0 -35.3,15.85 -35.3,35.4l0 674.98z"/>
    <polyline id="Path-5" class="fil17 str4" points="15367.12,40545.35 15498.93,40577.1 15750.76,40447.78 15924.73,40515.12 16046.61,40599.67 16126.48,40503.12 16245.85,40494.96 "/>
   </g>
   <g>
    <path id="Oval-Copy_73" class="fil25" d="M14615.8 20949c0,-763.04 -618.55,-1381.59 -1381.59,-1381.59 -763.04,0 -1381.6,618.55 -1381.6,1381.59 0,763.04 618.56,1381.6 1381.6,1381.6 763.04,0 1381.59,-618.56 1381.59,-1381.6z"/>
    <path id="Path-14" class="fil13_28" d="M13652.45 20755.03l-93.42 0 93.42 0zm0 0l-93.42 0 93.42 0z"/>
    <polygon id="Path-14_74" class="fil13_29" points="13652.45,20707.53 13559.03,20707.53 13559.03,20755.03 13652.45,20755.03 "/>
    <path id="Path-14_75" class="fil13_30" d="M13652.45 20897.58l-93.42 0 93.42 0zm0 0l-93.42 0 93.42 0z"/>
    <polygon id="Path-14_76" class="fil13_31" points="13652.45,20850.06 13559.03,20850.06 13559.03,20897.58 13652.45,20897.58 "/>
    <path id="Path-14_77" class="fil13_32" d="M13652.45 20992.61l-93.42 0 93.42 0zm0 0l-93.42 0 93.42 0z"/>
    <polygon id="Path-14_78" class="fil13_33" points="13652.45,20992.61 13559.03,20992.61 13559.03,21040.12 13652.45,21040.12 "/>
    <path id="Path-14_79" class="fil13_34" d="M13652.45 21135.15l-93.42 0 93.42 0zm0 0l-93.42 0 93.42 0z"/>
    <polygon id="Path-14_80" class="fil13_35" points="13652.45,21135.15 13559.03,21135.15 13559.03,21182.67 13652.45,21182.67 "/>
    <path id="Path-14_81" class="fil13_36" d="M12939.35 20755.03l-93.42 0 93.42 0zm0 0l-93.42 0 93.42 0z"/>
    <polygon id="Path-14_82" class="fil13_37" points="12892.64,20707.53 12799.23,20707.53 12799.23,20755.03 12892.64,20755.03 "/>
    <path id="Path-14_83" class="fil13_38" d="M12939.35 20897.58l-93.42 0 93.42 0zm0 0l-93.42 0 93.42 0z"/>
    <polygon id="Path-14_84" class="fil13_39" points="12892.64,20850.06 12799.23,20850.06 12799.23,20897.58 12892.64,20897.58 "/>
    <path id="Path-14_85" class="fil13_40" d="M12939.35 20992.61l-93.42 0 93.42 0zm0 0l-93.42 0 93.42 0z"/>
    <polygon id="Path-14_86" class="fil13_41" points="12892.64,20992.61 12799.23,20992.61 12799.23,21040.12 12892.64,21040.12 "/>
    <path id="Path-14_87" class="fil13_42" d="M12939.35 21135.15l-93.42 0 93.42 0zm0 0l-93.42 0 93.42 0z"/>
    <polygon id="Path-14_88" class="fil13_43" points="12892.64,21135.15 12799.23,21135.15 12799.23,21182.67 12892.64,21182.67 "/>
    <path id="Path-14_89" class="fil13_44" d="M13415.66 21324.77l0 -93.41 0 93.41zm0 0l0 -93.41 0 93.41z"/>
    <polygon id="Path-14_90" class="fil13_45" points="13463.17,21371.49 13463.17,21278.07 13415.66,21278.07 13415.66,21371.49 "/>
    <path id="Path-14_91" class="fil13_46" d="M13273.11 21324.77l0 -93.41 0 93.41zm0 0l0 -93.41 0 93.41z"/>
    <polygon id="Path-14_92" class="fil13_47" points="13320.63,21371.49 13320.63,21278.07 13273.11,21278.07 13273.11,21371.49 "/>
    <path id="Path-14_93" class="fil13_48" d="M13178.08 21324.77l0 -93.41 0 93.41zm0 0l0 -93.41 0 93.41z"/>
    <polygon id="Path-14_94" class="fil13_49" points="13178.08,21371.49 13178.08,21278.07 13130.57,21278.07 13130.57,21371.49 "/>
    <path id="Path-14_95" class="fil13_50" d="M13035.54 21324.77l0 -93.41 0 93.41zm0 0l0 -93.41 0 93.41z"/>
    <polygon id="Path-14_96" class="fil13_51" points="13035.54,21371.49 13035.54,21278.07 12988.02,21278.07 12988.02,21371.49 "/>
    <path id="Path-14_97" class="fil13_52" d="M13415.66 20611.64l0 -93.42 0 93.42zm0 0l0 -93.42 0 93.42z"/>
    <polygon id="Path-14_98" class="fil13_53" points="13463.17,20611.64 13463.17,20518.22 13415.66,20518.22 13415.66,20611.64 "/>
    <path id="Path-14_99" class="fil13_54" d="M13273.11 20611.64l0 -93.42 0 93.42zm0 0l0 -93.42 0 93.42z"/>
    <polygon id="Path-14_100" class="fil13_55" points="13320.63,20611.64 13320.63,20518.22 13273.11,20518.22 13273.11,20611.64 "/>
    <path id="Path-14_101" class="fil13_56" d="M13178.08 20611.64l0 -93.42 0 93.42zm0 0l0 -93.42 0 93.42z"/>
    <polygon id="Path-14_102" class="fil13_57" points="13178.08,20611.64 13178.08,20518.22 13130.57,20518.22 13130.57,20611.64 "/>
    <path id="Path-14_103" class="fil13_58" d="M13035.54 20611.64l0 -93.42 0 93.42zm0 0l0 -93.42 0 93.42z"/>
    <polygon id="Path-14_104" class="fil13_59" points="13035.54,20611.64 13035.54,20518.22 12988.02,20518.22 12988.02,20611.64 "/>
    <path id="Oval-4" class="fil13_60" d="M13225.58 20991.75c-26.24,0 -47.52,-20.92 -47.52,-46.72 0,-25.8 21.27,-46.71 47.52,-46.71 26.24,0 47.51,20.91 47.51,46.71 0,25.8 -21.26,46.72 -47.51,46.72z"/>
    <path id="Rectangle-9" class="fil13_61" d="M13035.52 21131.87l380.11 0 0 -373.68 -380.11 0 0 373.68zm-47.51 -420.37l475.13 0 0 467.08 -475.13 0 0 -467.08z"/>
    <path id="Rectangle-31" class="fil13_62" d="M12565.25 20347.28l0 1223.62c0,26 21.01,47.07 47.06,47.07l1223.62 0c26,0 47.06,-21.02 47.06,-47.07l0 -1223.62c0,-26 -21.02,-47.06 -47.06,-47.06l-1223.62 0c-26,0 -47.06,21.02 -47.06,47.06zm-47.07 0c0,-52.15 42.25,-94.12 94.13,-94.12l1223.62 0c52.15,0 94.13,42.25 94.13,94.12l0 1223.62c0,52.16 -42.26,94.12 -94.13,94.12l-1223.62 0c-52.16,0 -94.13,-42.25 -94.13,-94.12l0 -1223.62z"/>
   </g>
   <g>
    <circle id="Oval-Copy-9" class="fil26" cx="7223.71" cy="34230.54" r="1381.6"/>
    <path id="Combined-Shape_105" class="fil17 str4" d="M7233.8 34868.45l0 -365.56c0,-22.33 17.33,-45.64 38.68,-52.04l248.85 -74.66c63.98,-19.2 115.86,-88.94 115.86,-155.97l0 -665.17c0,-11.24 -9.06,-20.36 -20.36,-20.36l-766.07 0c-11.24,0 -20.35,9.06 -20.35,20.36l0 665.17c0,66.95 51.91,136.79 115.86,155.97l248.85 74.66c21.36,6.41 38.67,29.7 38.67,52.04l0 365.56c0,-91.89 0.11,-1.7 0.11,-2.57 -0.16,80.67 351.3,80.04 351.3,80.04 22.6,0.47 22.33,0.64 -0.01,0.64l-702.57 0c-22.27,0 -22.51,-0.28 -0.37,-0.63 0,0 344.5,0.62 351.54,-77.48z"/>
   </g>
   <g>
    <path id="Oval-Copy_106" class="fil27" d="M42217.63 28725.56c0,-763.04 -618.56,-1381.59 -1381.6,-1381.59 -763.04,0 -1381.6,618.55 -1381.6,1381.59 0,763.04 618.56,1381.6 1381.6,1381.6 763.04,0 1381.6,-618.56 1381.6,-1381.6z"/>
    <path id="Combined-Shape_107" class="fil17 str6" d="M41383.96 28489.26l-1075.71 0 0 -217.56c0,-22.25 -18.01,-40.29 -40.27,-40.29l13.32 0c-22.25,0 -40.27,18.01 -40.27,40.45l0 303.35 1210.17 0 0 -303.35c0,-22.33 -18.03,-40.45 -40.27,-40.45l13.31 0c-22.25,0 -40.27,18.14 -40.27,40.29l0 217.56z"/>
    <polygon id="Rectangle-5" class="fil17 str6" points="40543.57,28575.21 41148.65,28575.21 41088.15,28833.05 40604.08,28833.05 "/>
    <path id="Rectangle-23" class="fil17 str6" d="M40169.19 28615.47c-2.1,-22.24 14.39,-40.26 36.5,-40.26l146.3 0c22.27,0 38.62,17.92 36.51,40.26l-20.76 220.31c-2.1,22.23 -22.02,40.25 -44.13,40.25l-89.52 0c-22.28,0 -42.02,-17.91 -44.13,-40.25l-20.76 -220.31z"/>
    <path id="Rectangle-23_108" class="fil17 str6" d="M41303.72 28615.47c-2.1,-22.24 14.39,-40.26 36.51,-40.26l146.29 0c22.27,0 38.62,17.92 36.52,40.26l-20.77 220.31c-2.1,22.23 -22.01,40.25 -44.13,40.25l-89.52 0c-22.28,0 -42.01,-17.91 -44.12,-40.25l-20.77 -220.31z"/>
    <path id="Path-21" class="fil17 str6" d="M40203.22 28339.07c0,0 -152.51,-93.73 -264.73,2.93 112.21,96.65 264.73,-2.93 264.73,-2.93z"/>
    <path id="Path-21_109" class="fil17 str6" d="M40619.2 28339.07c0,0 -152.51,-93.73 -264.73,2.93 112.21,96.65 264.73,-2.93 264.73,-2.93z"/>
    <path id="Path-21_110" class="fil17 str6" d="M41337.74 28339.07c0,0 -152.51,-93.73 -264.73,2.93 112.21,96.65 264.73,-2.93 264.73,-2.93z"/>
    <path id="Path-21_111" class="fil17 str6" d="M41753.73 28339.07c0,0 -152.5,-93.73 -264.72,2.93 112.21,96.65 264.72,-2.93 264.72,-2.93z"/>
    <path id="Combined-Shape_112" class="fil17 str6" d="M40127.58 29238.78l127.68 0c110.39,-216.85 316.72,-362.75 553.04,-362.75"/>
    <path id="Combined-Shape_113" class="fil17 str6" d="M41564.64 29238.78l-127.69 0c-110.38,-216.85 -316.71,-362.75 -553.02,-362.75"/>
    <path id="Rectangle-19" class="fil17 str6" d="M40883.93 28489.26l0 -90.94c0,-20.97 -16.78,-37.98 -37.82,-37.98l0 0c-20.89,0 -37.82,16.86 -37.82,37.98l0 90.94"/>
    <path id="Rectangle-19_114" class="fil17 str6" d="M40883.93 28833.05l0 90.95c0,20.97 -16.78,37.98 -37.82,37.98l0 0c-20.89,0 -37.82,-16.85 -37.82,-37.98l0 -90.95"/>
   </g>
   <g>
    <path id="Oval-Copy_115" class="fil21" d="M52151.05 31548.02c0,-763.04 -618.55,-1381.6 -1381.59,-1381.6 -763.04,0 -1381.6,618.56 -1381.6,1381.6 0,763.04 618.56,1381.6 1381.6,1381.6 763.04,0 1381.59,-618.56 1381.59,-1381.6z"/>
    <path id="Combined-Shape_116" class="fil17 str4" d="M51354.52 31640.92c16.25,-59.32 24.92,-121.77 24.92,-186.25 0,-388.45 -314.9,-703.35 -703.35,-703.35 -388.44,0 -703.34,314.9 -703.34,703.35m19.9 166.82c74.9,307.92 352.48,536.53 683.44,536.53 64.49,0 126.94,-8.68 186.27,-24.93"/>
    <path id="Combined-Shape_117" class="fil17 str4" d="M51139.4 31616.63c0.58,-1.53 1.14,-3.05 1.71,-4.58 20.36,-55.52 31.47,-115.5 31.47,-178.07 0,-124.22 -43.8,-238.22 -116.8,-327.38m-81.86 -80.09c-87.8,-68.73 -198.37,-109.69 -318.51,-109.69 -285.62,0 -517.17,231.55 -517.17,517.17 0,285.63 231.55,517.17 517.17,517.17 61.29,0 120.11,-10.67 174.67,-30.23 2.67,-0.96 5.32,-1.94 7.97,-2.93"/>
    <path id="Oval-5" class="fil17 str4" d="M50655.41 31785.66c194.23,0 351.68,-157.46 351.68,-351.68 0,-152.39 -96.95,-282.16 -232.54,-330.98m-119.14 -20.69c-194.22,0 -351.67,157.45 -351.67,351.67 0,151.86 96.25,281.24 231.09,330.46"/>
    <path id="Oval-5_118" class="fil17 str4" d="M50818.93 31371.01c-28.75,-48.96 -81.95,-81.84 -142.83,-81.84 -91.4,0 -165.49,74.1 -165.49,165.5 0,91.4 74.09,165.49 165.49,165.49l0 0c91.41,0 165.5,-74.09 165.5,-165.49"/>
    <circle id="Oval_119" class="fil17 str4" cx="51256.86" cy="32035.43" r="291.14"/>
    <polyline id="Path-4" class="fil17 str4" points="51111.28,32059.69 51232.59,32156.74 51402.42,31914.12 "/>
   </g>
   <g>
    <circle id="Oval-Copy-11_120" class="fil16" cx="40220.86" cy="41695.3" r="1381.6"/>
    <path class="fil17 str4" d="M39908.23 40999.46l644.2 0c11.14,0 20.18,9.03 20.18,20.17l-0.01 88.01c0.01,11.14 -9.02,20.18 -20.16,20.18l-644.21 0c-11.12,0 -20.16,-9.03 -20.16,-20.18l-0.01 -88.02c0.01,-11.12 9.04,-20.16 20.18,-20.16z"/>
    <polyline id="Rectangle_121" class="fil17 str4" points="39973.63,42026.26 40187.55,42026.26 40187.55,41384.51 40187.55,41384.51 39973.63,41384.51 "/>
    <polyline id="Rectangle_122" class="fil17 str4" points="40487.02,42026.26 40358.67,42026.26 40358.67,41384.51 40358.67,41384.51 40487.02,41384.51 "/>
    <path id="Rectangle-2_123" class="fil17 str4" d="M40487.02 41170.59l0 1154.46c0,47.64 -38.58,86.26 -85.93,86.26l-341.53 0c-47.47,0 -85.94,-38.49 -85.94,-86.26l0 -1154.46 0 0"/>
   </g>
  </g>
 </g>
</svg>
