<?xml version="1.0" encoding="UTF-8"?>
<!DOCTYPE svg PUBLIC "-//W3C//DTD SVG 1.1//EN" "http://www.w3.org/Graphics/SVG/1.1/DTD/svg11.dtd">
<!-- Creator: CorelDRAW 2020 (64-Bit Versión de evaluación) -->
<svg xmlns="http://www.w3.org/2000/svg" xml:space="preserve" width="35.3058mm" height="35.3058mm" version="1.1" style="shape-rendering:geometricPrecision; text-rendering:geometricPrecision; image-rendering:optimizeQuality; fill-rule:evenodd; clip-rule:evenodd"
viewBox="0 0 3472.32 3472.32"
 xmlns:xlink="http://www.w3.org/1999/xlink"
 xmlns:xodm="http://www.corel.com/coreldraw/odm/2003">
 <defs>
  <style type="text/css">
   <![CDATA[
    .fil0 {fill:white}
   ]]>
  </style>
 </defs>
 <g id="Capa_x0020_1">
  <metadata id="CorelCorpID_0Corel-Layer"/>
  <g id="_2892302687264">
   <polygon class="fil0" points="-0,0 -0,774.41 774.41,774.41 774.41,0 "/>
   <polygon class="fil0" points="1348.96,774.41 2123.36,774.41 2123.36,0 1348.96,0 "/>
   <polygon class="fil0" points="3472.32,0 2697.91,0 2697.91,774.41 3472.32,774.41 "/>
   <polygon class="fil0" points="-0,2123.36 774.41,2123.36 774.41,1348.96 -0,1348.96 "/>
   <polygon class="fil0" points="1348.96,2123.36 2123.36,2123.36 2123.36,1348.96 1348.96,1348.96 "/>
   <polygon class="fil0" points="2697.91,2123.36 3472.32,2123.36 3472.32,1348.96 2697.91,1348.96 "/>
   <polygon class="fil0" points="-0,3472.32 774.41,3472.32 774.41,2697.91 -0,2697.91 "/>
   <polygon class="fil0" points="1348.96,3472.32 2123.36,3472.32 2123.36,2697.91 1348.96,2697.91 "/>
   <polygon class="fil0" points="3472.32,3472.32 3472.32,2697.91 2697.91,2697.91 2697.91,3472.32 "/>
  </g>
 </g>
</svg>
