<?xml version="1.0" encoding="UTF-8"?>
<!DOCTYPE svg PUBLIC "-//W3C//DTD SVG 1.1//EN" "http://www.w3.org/Graphics/SVG/1.1/DTD/svg11.dtd">
<!-- Creator: CorelDRAW 2020 (64-Bit Versión de evaluación) -->
<svg xmlns="http://www.w3.org/2000/svg" xml:space="preserve" width="35.3058mm" height="35.3058mm" version="1.1" style="shape-rendering:geometricPrecision; text-rendering:geometricPrecision; image-rendering:optimizeQuality; fill-rule:evenodd; clip-rule:evenodd"
viewBox="0 0 1045.63 1045.63"
 xmlns:xlink="http://www.w3.org/1999/xlink"
 xmlns:xodm="http://www.corel.com/coreldraw/odm/2003">
 <defs>
  <style type="text/css">
   <![CDATA[
    .fil0 {fill:white}
   ]]>
  </style>
 </defs>
 <g id="Capa_x0020_1">
  <metadata id="CorelCorpID_0Corel-Layer"/>
  <g id="_2892295757968">
   <path class="fil0" d="M-0 1045.63l175.52 0c0,-20.86 2.85,-168.22 -2.23,-173.29 -5.08,-5.08 -152.43,-2.23 -173.29,-2.23l0 175.52z"/>
   <polygon class="fil0" points="-0,0 -0,175.52 175.52,175.52 175.52,0 "/>
   <polygon class="fil0" points="579.23,175.52 754.76,175.52 754.76,0 579.23,0 "/>
   <polygon class="fil0" points="1045.63,0 870.11,0 870.11,175.52 1045.63,175.52 "/>
   <polygon class="fil0" points="-0,466.4 175.52,466.4 175.52,290.87 -0,290.87 "/>
   <polygon class="fil0" points="579.23,466.4 754.76,466.4 754.76,290.87 579.23,290.87 "/>
   <polygon class="fil0" points="870.11,466.4 1045.63,466.4 1045.63,290.87 870.11,290.87 "/>
   <polygon class="fil0" points="579.23,1045.63 754.76,1045.63 754.76,870.11 579.23,870.11 "/>
   <polygon class="fil0" points="1045.63,1045.63 1045.63,870.11 870.11,870.11 870.11,1045.63 "/>
   <path class="fil0" d="M288.36 458.87c0,5.78 1.74,7.52 7.52,7.52l168 0 0 -175.52 -175.52 0 0 168z"/>
   <path class="fil0" d="M-0 757.27l168 0c5.78,0 7.52,-1.74 7.52,-7.52l0 -168 -175.52 0 0 175.52z"/>
   <path class="fil0" d="M288.36 749.74c0,5.78 1.74,7.52 7.52,7.52l168 0 0 -175.52 -175.52 0 0 168z"/>
   <path class="fil0" d="M579.23 749.74c0,5.78 1.74,7.52 7.52,7.52l168 0 0 -175.52 -175.52 0 0 168z"/>
   <path class="fil0" d="M288.36 7.52l0 168 175.52 0 0 -175.52 -168 0 -0.27 0c-5.56,0.06 -7.26,1.83 -7.26,7.52z"/>
   <path class="fil0" d="M288.36 877.63l0 168 175.52 0 0 -175.52 -168 0c-5.78,0 -7.52,1.74 -7.52,7.52z"/>
   <path class="fil0" d="M870.11 749.74c0,5.78 1.74,7.52 7.52,7.52l160.48 0c5.69,0 7.47,-1.69 7.52,-7.26l0 -0.27 0 -168 -175.52 0 0 168z"/>
  </g>
 </g>
</svg>
