<?xml version="1.0" encoding="UTF-8"?>
<!DOCTYPE svg PUBLIC "-//W3C//DTD SVG 1.1//EN" "http://www.w3.org/Graphics/SVG/1.1/DTD/svg11.dtd">
<!-- Creator: CorelDRAW 2020 (64-Bit Versión de evaluación) -->
<svg xmlns="http://www.w3.org/2000/svg" xml:space="preserve" width="22.5139mm" height="19.375mm" version="1.1" style="shape-rendering:geometricPrecision; text-rendering:geometricPrecision; image-rendering:optimizeQuality; fill-rule:evenodd; clip-rule:evenodd"
viewBox="0 0 692.46 595.92"
 xmlns:xlink="http://www.w3.org/1999/xlink"
 xmlns:xodm="http://www.corel.com/coreldraw/odm/2003">
 <defs>
  <style type="text/css">
   <![CDATA[
    .fil3 {fill:#630E44}
    .fil4 {fill:#70084A}
    .fil0 {fill:#8C125F}
    .fil1 {fill:#BF1B83}
    .fil2 {fill:#CB218E}
    .fil5 {fill:#E8219F}
    .fil6 {fill:#FF00A2}
   ]]>
  </style>
 </defs>
 <g id="Capa_x0020_1">
  <metadata id="CorelCorpID_0Corel-Layer"/>
  <g id="_2086346801552">
   <path class="fil0" d="M346.62 589.38c6.13,-8.46 52.39,-122.44 62.26,-144.85 4.32,-9.81 8.42,-20.03 12.58,-30.11 -21.92,10.25 -46.36,16 -72.1,16 -27.95,0 -54.36,-6.75 -77.68,-18.71 11.55,27.22 22.82,54.17 34.25,80.81l40.7 96.86zm138 -324.16l4.8 -11.4 -13.6 0 0 11.4 8.81 0zm26.07 -62.05c0.2,-0.74 0.38,-1.48 0.52,-2.22l-1.22 0.24 0.7 1.97zm-84.1 -2.33l-1.91 0.01c-5.29,0 -12.8,-0.03 -21.89,-0.08l-46.99 46.98 0 0c-2.28,-0.77 -4.56,-1.15 -6.83,-1.15 -2.66,0 -5.32,0.75 -7.61,1.52l-47.68 -47.93c-8.72,-0.03 -17.36,-0.05 -25.75,-0.06l61.67 61.67c-0.39,1.53 -0.39,3.04 -0.39,4.56 0,11.01 8.73,19.73 19.76,19.73 11,0 19.76,-8.72 19.76,-19.73 0,-1.91 -0.38,-3.41 -0.78,-5.32 0.4,0 0.4,0 0.78,-0.37l55.82 -55.45c1.04,-1.3 1.72,-2.81 2.04,-4.38zm-237.75 -0.01c-2.38,0.1 -4.36,0.2 -5.84,0.32l3.17 7.55c0.83,-2.65 1.72,-5.27 2.67,-7.87zm16.27 52.99l4.79 11.4 12.99 0c0,0 0,-11.4 0,-11.4l-17.78 0zm149.57 165.21l-11.41 0 0 -32.65 11.41 0 0 32.65z"/>
   <path class="fil1" d="M276.43 37.26c-1.45,5.5 -40.05,70.43 -46.54,81.76l-35.34 61.44c-3.77,6.23 -8.42,13.32 -11.57,20.69 1.48,-0.12 3.46,-0.22 5.84,-0.32 24.02,-65.4 86.94,-112.23 160.53,-112.23 50.1,0 95.26,21.71 126.56,56.22 -24.06,-41.19 -59.69,-102.31 -61.68,-107.82l-1.76 -1.23c-6.94,0.29 -14.28,0.53 -20.43,0.57l-0.05 0 -0.51 0 -0.01 0 -0.54 0c-12.7,0.03 -25.39,0.42 -38.14,0.42 -14.6,-0 -65.29,0.61 -76.38,0.5zm-8.5 162.87c8.39,0.01 17.03,0.03 25.75,0.06l-28.26 -28.41c-3.81,-3.42 -9.49,-3.42 -12.93,0l0 0c-3.41,3.8 -3.41,9.48 0,12.91l15.44 15.44zm134.86 0.64c9.09,0.05 16.59,0.08 21.89,0.08l1.91 -0.01c0.62,-3.04 -0.15,-6.29 -2.41,-8.54l0 0c-3.81,-3.42 -9.49,-3.42 -12.91,0l-8.47 8.47zm-59.52 -100l11.41 0 0 32.65 -11.41 0 0 -32.65z"/>
   <path class="fil2" d="M92.2 305.8c2.06,1.77 9.65,10.4 11.8,13.35l51.58 58.32c3.14,3.36 4.2,4.07 7,7.61l116.19 131.64c10.3,12.08 54.39,58.21 56.94,65.73 7.93,4.81 4.43,4.9 9.51,10.01l1.39 -3.07 -40.7 -96.86c-11.43,-26.64 -22.7,-53.59 -34.25,-80.81 -55.29,-28.35 -93.25,-85.95 -93.25,-152.19 0,-17.69 2.71,-34.76 7.73,-50.83l-3.17 -7.55c-36.56,-1.74 -127.32,-0.66 -173.51,-0.3 -1.78,0.02 -3.64,0.03 -5.38,0.33 -4.13,0.72 -0.61,-0.54 -3.02,1.09 4.05,6.13 6.2,7.41 11.44,13.2 2.4,2.65 3.53,4.73 5.89,7.37l73.78 82.95zm117.69 -40.57l-4.79 -11.4 -14.88 0 0 11.4 19.67 0z"/>
   <path class="fil3" d="M346.62 589.38l-1.39 3.07 0.85 3.47c1.91,-2.68 2.26,-3.44 4.48,-5.87 2.77,-3.03 2.53,-2.95 5.97,-5 1.27,-5.3 1.96,-4.36 6.5,-8.95 2.91,-2.94 3.99,-4.96 6.78,-7.96 5.58,-5.99 8.83,-10.46 13.87,-15.43 3.68,-3.63 4.32,-4.88 7.43,-8.72l35.12 -39.67c2.72,-3.11 4.53,-4.32 7.12,-7.47 2.6,-3.17 3.98,-5.17 6.77,-7.96l77.66 -88.04c2.95,-3.18 4.38,-4.12 7.1,-7.48l56.84 -62.69c2,-5.02 3.27,-5.94 7.1,-9.73 3.68,-3.64 5.03,-5.87 8.48,-9.65 14.6,-15.56 88.12,-101.08 95.16,-106.8 -0.63,-2.18 -1.11,-2.91 -1.11,-2.91l-180.14 -0.63c-0.14,0.74 -0.32,1.48 -0.52,2.22 6.19,17.65 9.57,36.62 9.57,56.36 0,68.43 -40.52,127.64 -98.8,154.9 -4.16,10.08 -8.26,20.3 -12.58,30.11 -9.87,22.4 -56.13,136.39 -62.26,144.85zm142.8 -335.56l-4.8 11.4 23.86 0 0 -11.4 -19.07 0z"/>
   <path class="fil4" d="M413.86 35.71l-0.1 0.01c2,5.54 38.09,67.69 62.29,109.26 14.69,16.23 26.31,35.28 33.94,56.22l1.22 -0.24 180.14 0.63c-2.54,-7.72 -9.09,-17.09 -13.64,-24.94 -4.37,-7.52 -8.77,-15.61 -13.35,-23.32 -4.89,-8.22 -25.48,-41.62 -26.41,-47.93 -4.57,-3.22 -32.93,-54.56 -39.63,-66.38 -3.15,-5.55 -9.71,-18.64 -14.08,-21.74 -2.22,5.36 -7.46,6.35 -14.5,7.61l-58 6.51 -1.11 0.07 -1.13 0.08 -0 0 -1.14 0.08 -0.01 0 -1.16 0.08 -0.01 0 -1.16 0.08 -0.02 0 -1.17 0.08 -0.02 0 -1.18 0.08 -0.03 0 -1.18 0.08 -0.04 0 -1.19 0.08 -0.05 0 -1.19 0.08 -0.06 0 -1.19 0.08 -0.08 0 -1.19 0.08 -0.09 0 -3.78 0.25 -0.13 0.01c-11.42,0.73 -23.91,1.46 -35.88,1.92l-0.9 0.04 -0.47 0.02 -0.89 0.03 -0.47 0.02 -1.36 0.05 -0.88 0.03 -0.47 0.02 -0.88 0.03 -0.46 0.02 -0.87 0.02 -0.46 0.01 -0.87 0.02 -0.45 0.01 -0.87 0.02 -0.44 0.01 -0.87 0.02c-6.2,0.14 -12.03,0.18 -17.17,0.07 -4.04,0.24 -9.28,0.51 -14.86,0.75z"/>
   <path class="fil5" d="M1.08 202.27c2.41,-1.64 -1.11,-0.38 3.02,-1.09 1.74,-0.3 3.59,-0.32 5.38,-0.33 46.19,-0.36 136.95,-1.43 173.51,0.3 3.15,-7.37 7.79,-14.46 11.57,-20.69l35.34 -61.44c6.49,-11.32 45.1,-76.26 46.54,-81.76 -10.67,-1.27 -35.03,-0.4 -45.75,-0.83l-86.48 -8.54c-12.52,-2.63 -32.28,-2.01 -35.75,-10.59 -4.46,4.29 -3.35,3.15 -9.34,10.62l-98.64 171.88c-0.38,3.65 -1.05,-0.02 0.62,2.48z"/>
   <path class="fil6" d="M108.45 17.29c3.47,8.58 23.23,7.95 35.75,10.59l86.48 8.54c10.73,0.43 35.08,-0.44 45.75,0.83 11.09,0.11 61.77,-0.5 76.38,-0.5 12.75,0 25.43,-0.39 38.14,-0.42 11.64,-0.03 28.14,-0.82 37.78,-1.38 24.05,0.47 59.47,-1.98 83.02,-3.56l58 -6.51c7.04,-1.26 12.28,-2.25 14.5,-7.61 -11.23,-8.54 -46.27,-9.62 -63.06,-11.16 -10.93,-1.01 -64.22,-2.73 -68.59,-5.03 -8.88,2.17 -74.5,-0.79 -89.52,-0.94 -29.62,-0.29 -60.31,-0.19 -89.68,0.74 -27.45,0.87 -151.93,3.45 -164.94,16.41z"/>
  </g>
 </g>
</svg>
