<?xml version="1.0" encoding="UTF-8"?>
<!DOCTYPE svg PUBLIC "-//W3C//DTD SVG 1.1//EN" "http://www.w3.org/Graphics/SVG/1.1/DTD/svg11.dtd">
<!-- Creator: CorelDRAW 2020 (64-Bit Versión de evaluación) -->
<svg xmlns="http://www.w3.org/2000/svg" xml:space="preserve" width="22.5139mm" height="19.375mm" version="1.1" style="shape-rendering:geometricPrecision; text-rendering:geometricPrecision; image-rendering:optimizeQuality; fill-rule:evenodd; clip-rule:evenodd"
viewBox="0 0 604.55 520.26"
 xmlns:xlink="http://www.w3.org/1999/xlink"
 xmlns:xodm="http://www.corel.com/coreldraw/odm/2003">
 <defs>
  <style type="text/css">
   <![CDATA[
    .fil3 {fill:#630E44}
    .fil4 {fill:#70084A}
    .fil0 {fill:#8C125F}
    .fil1 {fill:#BF1B83}
    .fil2 {fill:#CB218E}
    .fil5 {fill:#E8219F}
    .fil6 {fill:#FF00A2}
   ]]>
  </style>
 </defs>
 <g id="Capa_x0020_1">
  <metadata id="CorelCorpID_0Corel-Layer"/>
  <g id="_2086475317568">
   <path class="fil0" d="M302.61 514.56c5.35,-7.38 45.74,-106.9 54.35,-126.46 3.51,-7.97 6.85,-16.25 10.23,-24.45 -1.02,-0 -2.09,-0.62 -3.21,-2.15 -2.34,-3.2 -3.51,-10.04 -8.46,-6.14 -12.99,10.24 6.72,-12.28 3.39,-7.29 3.64,-5.57 -8.5,-5.93 -10.05,-6.25 2.68,-25.52 -19.97,-33.43 -36.34,-47.98 -10.19,-10.19 -1.69,13.56 1.78,17.83 7.56,9.45 26.18,13.55 27.88,24.08 -14.88,-5.13 -8.25,18.35 -21.2,24.45 -7.81,3.67 -27.31,-9.92 -3.37,-11.03 14.1,-1.01 13.64,-12.33 2.76,-18.15 -17.59,-9.41 -28.98,-34.89 -44.92,-23.64 -13.95,9.64 -19.34,-2.18 -25.43,11.52 -4.15,9.49 -16.79,6.44 -20.16,19.18 -0.24,0.79 -0.5,1.56 -0.79,2.31l2.18 5.1c12.19,28.51 23.91,56.7 35.84,84.5l35.53 84.56zm73.69 -172.07c1.8,-4.02 3.61,-8.1 5.41,-12.22 -1.97,-0.03 -5.05,1.43 -9.86,5.37 -1.35,1.23 1.07,3.79 4.45,6.86zm41.71 -98.85l19.86 -47.2c2.93,-7.19 7.09,-14.19 8.44,-21l-2.99 0.6c-16.87,-2.75 -53.58,-0.69 -72.56,-0.69 -6.71,0 -17.45,-0.05 -30.63,-0.13 -2.93,8 -7.6,19.82 -8.24,21.8 -2.57,8.21 -25.85,18.23 -32.82,21.01 5.86,-5.86 5.95,-38.39 -2.54,-43.07l-3.23 -0.02c-4.14,3.07 -11.01,18.15 -21.77,15.76 -7.16,-1.51 -8.83,-8.86 -9.77,-15.91 -45.92,-0.17 -90.49,-0.11 -102.01,0.82l17.04 40.58c0.74,-0.5 1.49,-0.96 2.26,-1.35 14.7,-6.86 17.3,15.05 7.27,24.05l9.25 22.02c1.72,4.01 3.42,8.02 5.12,12.02 4.69,-2.63 18.02,-13.52 16.66,-12.62 -0.86,0.59 13.11,0.38 14.83,0 5.89,-1.61 5.98,-7.39 11.03,-9.07 11.26,-4.33 14.35,-11.1 19.67,-18.75 5.97,-9.16 20.58,1.18 19.67,-12.44 -0.2,-4.37 -8.95,-32.8 8.15,-27.33 10.44,3.48 -15.52,30.27 15.38,30.27 10.65,0 19.44,-2.82 31.68,-2.82 3.76,0 39,-3.02 21.14,-11.95 -4.44,-1.48 0.64,-15.45 5.7,-15.81 3.69,-0.25 12.94,12.87 15.87,5.33 2.46,-6.9 -15.85,-16.1 -0.92,-21.08 9.53,-3.18 17.49,-0.11 21.69,6.62 -1.12,-1.54 4.74,26.06 4.97,24.02 -0.63,4.39 -25.68,16.74 -29.97,18.75 0.07,0.7 -1.73,21.01 -0.24,21.51 12.38,0 28.74,-1.24 41.99,-3.93zm-215.94 32.55c4.47,10.58 8.89,21.14 13.32,31.73 9.56,-3.67 9.1,-11.71 2.95,-24.01 -2.49,-4.99 -11.52,-5.78 -16.27,-7.71zm-11.74 -75.81c0,-0.16 1.18,12.21 0,11.03 2,2 7.69,-6.38 9.56,0 1.97,5.25 9.97,7.26 10.54,13.85 0.32,4.48 -11.43,11.97 -12.5,16.79 -1.14,6.43 12.64,2.76 12.5,6.25 -0.08,2.73 -17.75,0.97 -14.62,7.42 5.13,10.59 40.38,-10.96 42.57,-16.06 0.48,-1.21 -11.89,-18.7 -14.89,-21.08 -3.16,-2.51 -2.11,-2.81 -3.1,-7.01 -1.94,-8.21 -7.19,0.37 -11.3,-3.53 -3.25,-3.25 5.93,-6.15 6.74,-7.66 5.58,-10.3 -6.53,-3.89 -9.38,-6.74 -3.76,-3.76 4.26,-6.13 4.11,-7.66 -1.06,-11.12 -16.71,7.25 -15.32,6.74 -3.3,-0.53 -5.08,-2.45 -5.33,-5.76 -6.74,-2.07 0.42,12.67 0.42,13.42z"/>
   <path class="fil1" d="M241.34 32.53c-1.26,4.8 -34.97,61.49 -40.64,71.38l-30.85 53.64c-3.29,5.44 -7.35,11.63 -10.1,18.07 11.52,-0.93 56.09,-0.99 102.01,-0.82 -0.53,-3.96 -0.83,-7.82 -1.75,-10.5 -4.58,-13.36 25.21,-29.09 33.78,-34.73 8.36,-5.51 23.35,-24.63 27.81,-32.99 4.94,-9.07 -12.58,-4.23 -2.51,-13.67 6.81,-6.81 14.28,3.31 16.91,0.67 2.38,-2.37 8.17,-17.1 14.26,-15.99 11.22,2.05 8.55,0.7 16.32,-5.52 -0.09,0.07 5.45,-0.28 11.12,-0.73 -8.8,-15.35 -15.28,-26.92 -16.05,-29.04l-1.53 -1.07c-6.06,0.25 -12.46,0.46 -17.84,0.49l-0.04 0 -0.44 0 -0.01 0 -0.47 0c-11.09,0.03 -22.16,0.37 -33.29,0.37 -12.75,-0 -57,0.53 -66.68,0.44zm51.96 142.41l3.23 0.02c-0.59,-0.33 -1.22,-0.52 -1.89,-0.56 -0.41,-0.02 -0.85,0.18 -1.34,0.54zm46.83 0.28c13.18,0.08 23.93,0.13 30.63,0.13 18.98,0 55.69,-2.06 72.56,0.69 -1.69,-5.93 -7.05,-13.9 -10.2,-19.38l-0.5 -0.87 -0.57 -0.99 0 -0 -0.64 -1.1 -0 -0.01 -1.46 -2.52 -0.01 -0.02 -8.61 -14.76c-0.49,8.67 -3.6,20.23 -6.09,21.88 -10.14,7.16 -37.17,20.73 -48.23,12.44 -30.6,-23.8 21.09,-33.27 18.26,-50.92 -3.37,-20.24 -38.46,21.47 -42.77,25.43 -12.61,11.64 -4.76,14.81 0,22.55 0.17,0.29 -0.87,3.37 -2.36,7.43z"/>
   <path class="fil2" d="M80.49 266.98c1.8,1.55 8.43,9.08 10.31,11.66l45.03 50.91c2.74,2.93 3.67,3.55 6.11,6.64l101.44 114.93c8.99,10.55 47.48,50.82 49.71,57.39 6.92,4.2 3.87,4.28 8.3,8.74l1.22 -2.68 -35.53 -84.56c-11.93,-27.8 -23.65,-55.99 -35.84,-84.5l-2.18 -5.1c-11.61,30.89 -59.69,27.01 -55.41,-5.13 1.2,-7.8 -2.56,-21.15 5.46,-25 10.4,-5.06 18.65,0.88 29.59,-0.7 2.62,-0.38 4.84,-0.93 6.68,-1.63 -4.43,-10.59 -8.85,-21.15 -13.32,-31.73 -1.76,-0.72 -2.93,-1.59 -2.98,-2.89 0,0.37 0.61,0.19 1.6,-0.37 -1.7,-4 -3.4,-8.01 -5.12,-12.02l-9.25 -22.02c-1.32,1.19 -2.87,2.15 -4.63,2.79 -1.53,0.49 0.67,-0.24 0,0 -23.22,7.43 -17.37,-16.89 -4.9,-25.49l-17.04 -40.58c-31.92,-1.52 -111.15,-0.58 -151.48,-0.27 -1.56,0.01 -3.18,0.03 -4.69,0.29 -3.61,0.63 -0.53,-0.47 -2.64,0.96 3.54,5.35 5.42,6.47 9.99,11.53 2.09,2.31 3.08,4.13 5.14,6.43l64.42 72.42z"/>
   <path class="fil3" d="M302.61 514.56l-1.22 2.68 0.74 3.03c1.66,-2.34 1.97,-3 3.91,-5.13 2.42,-2.64 2.21,-2.58 5.21,-4.37 1.11,-4.63 1.71,-3.8 5.67,-7.81 2.54,-2.56 3.48,-4.33 5.92,-6.95 4.87,-5.23 7.71,-9.14 12.11,-13.47 3.21,-3.17 3.77,-4.26 6.49,-7.61l30.66 -34.64c2.37,-2.71 3.96,-3.77 6.21,-6.52 2.27,-2.77 3.47,-4.51 5.91,-6.95l67.8 -76.86c2.57,-2.78 3.82,-3.6 6.2,-6.53l49.63 -54.74c1.75,-4.38 2.86,-5.18 6.2,-8.49 3.21,-3.18 4.4,-5.13 7.4,-8.43 12.75,-13.59 76.93,-88.24 83.08,-93.24 -0.55,-1.91 -0.97,-2.54 -0.97,-2.54l-157.27 -0.55c-1.35,6.81 -5.51,13.8 -8.44,21l-19.86 47.2c2.47,-0.5 4.83,-1.05 7.03,-1.65 10.59,-3.18 22.66,0.17 25.92,13.24 0.12,0.48 25.34,5.9 27.33,6.5 13.97,4.14 -35.36,26.79 -35.28,26.77 -16.4,4.05 -17.64,-2.59 -31.27,11.04 -5.4,4.98 -10.6,12.63 -10.6,21.14 0,3.11 8.83,2.85 6.25,7.72 0.2,-0.39 -25.6,11.89 -20.65,14.89 -2.49,-1.5 0.44,-12.95 -5.03,-13.03 -1.8,4.12 -3.61,8.2 -5.41,12.22 6.06,5.49 15.23,12.61 11.42,16.68 -4.4,4.41 -6.2,-6.46 -9.13,-6.74 -3.42,-0.34 -6.97,11.24 -11.39,11.23 -3.38,8.2 -6.72,16.48 -10.23,24.45 -8.62,19.56 -49,119.08 -54.35,126.46zm146.02 -219.13c0.18,0.03 -22.67,-5.88 -14.4,2.39 4.76,4.76 28.27,2.95 22.68,-4.04 -2.83,0.13 -5.59,0.68 -8.28,1.66 -1.78,-0.37 1.53,0.37 0,0z"/>
   <path class="fil4" d="M361.32 31.17l-0.09 0.01c0.78,2.16 7.53,14.23 16.63,30.15 5.97,-0.48 12.02,-1.09 11.76,-1.46 -0.5,1.39 -0.87,2.82 -1.1,4.29 0.11,0.06 5.35,-0.47 6.86,0.37 -4.06,-2.25 15.49,-2.42 13.3,-2.27 13.07,0 6.17,5.74 7.17,9.74 1.93,0.69 3.85,1.4 5.76,2.15 0.84,5.04 -11.61,5.42 -12.69,6.93 -6.29,8.8 10.93,10.07 7.78,17.16 -1.97,4.11 -2.72,28.81 1.41,28.43 2.74,-0.26 3.52,4.12 3.21,9.7 5.45,9.37 9.72,16.69 11.79,20.29 3.16,5.48 8.51,13.44 10.2,19.38l2.99 -0.6 157.27 0.55c-2.22,-6.74 -7.93,-14.92 -11.91,-21.77 -3.81,-6.57 -7.66,-13.62 -11.65,-20.36 -4.27,-7.18 -22.24,-36.33 -23.06,-41.84 -3.99,-2.81 -28.75,-47.63 -34.6,-57.96 -2.75,-4.85 -8.48,-16.27 -12.29,-18.98 -1.94,4.68 -6.51,5.54 -12.66,6.64l-50.64 5.68 -0.97 0.06 -0.99 0.07 -0 0 -1 0.07 -0.01 0 -1.01 0.07 -0.01 0 -1.02 0.07 -0.02 0 -1.03 0.07 -0.02 0 -1.03 0.07 -0.03 0 -1.03 0.07 -0.04 0 -1.04 0.07 -0.05 0 -1.04 0.07 -0.06 0 -1.04 0.07 -0.07 0 -1.04 0.07 -0.08 0 -3.3 0.21 -0.12 0.01c-9.97,0.64 -20.88,1.28 -31.33,1.68l-0.78 0.03 -0.41 0.01 -0.78 0.03 -0.41 0.01 -1.18 0.04 -0.77 0.03 -0.41 0.01 -0.77 0.02 -0.4 0.01 -0.76 0.02 -0.4 0.01 -0.76 0.02 -0.39 0.01 -0.76 0.02 -0.38 0.01 -0.76 0.02c-5.41,0.12 -10.5,0.16 -14.99,0.06 -3.53,0.21 -8.1,0.45 -12.98,0.66z"/>
   <path class="fil5" d="M0.94 176.59c2.1,-1.43 -0.97,-0.33 2.64,-0.96 1.52,-0.26 3.14,-0.28 4.69,-0.29 40.33,-0.31 119.56,-1.25 151.48,0.27 2.75,-6.43 6.8,-12.63 10.1,-18.07l30.85 -53.64c5.67,-9.89 39.37,-66.58 40.64,-71.38 -9.32,-1.11 -30.58,-0.35 -39.95,-0.73l-75.5 -7.46c-10.93,-2.3 -28.18,-1.75 -31.21,-9.24 -3.89,3.75 -2.92,2.75 -8.16,9.27l-86.12 150.06c-0.33,3.18 -0.91,-0.01 0.54,2.16z"/>
   <path class="fil6" d="M94.68 15.1c3.03,7.49 20.28,6.94 31.21,9.24l75.5 7.46c9.37,0.37 30.63,-0.38 39.95,0.73 9.68,0.1 53.93,-0.44 66.68,-0.44 11.13,0 22.2,-0.34 33.29,-0.37 10.17,-0.03 24.56,-0.72 32.98,-1.21 21,0.41 51.92,-1.73 72.48,-3.11l50.64 -5.68c6.15,-1.1 10.72,-1.96 12.66,-6.64 -9.8,-7.45 -40.4,-8.4 -55.06,-9.74 -9.55,-0.88 -56.07,-2.38 -59.89,-4.4 -7.75,1.9 -65.04,-0.69 -78.15,-0.82 -25.86,-0.25 -52.66,-0.17 -78.3,0.65 -23.96,0.76 -132.64,3.02 -144,14.33z"/>
  </g>
 </g>
</svg>
