<?xml version="1.0" encoding="UTF-8"?>
<!DOCTYPE svg PUBLIC "-//W3C//DTD SVG 1.1//EN" "http://www.w3.org/Graphics/SVG/1.1/DTD/svg11.dtd">
<!-- Creator: CorelDRAW 2020 (64-Bit Versión de evaluación) -->
<svg xmlns="http://www.w3.org/2000/svg" xml:space="preserve" width="22.5139mm" height="19.375mm" version="1.1" style="shape-rendering:geometricPrecision; text-rendering:geometricPrecision; image-rendering:optimizeQuality; fill-rule:evenodd; clip-rule:evenodd"
viewBox="0 0 1476.53 1270.67"
 xmlns:xlink="http://www.w3.org/1999/xlink"
 xmlns:xodm="http://www.corel.com/coreldraw/odm/2003">
 <defs>
  <style type="text/css">
   <![CDATA[
    .fil3 {fill:#630E44}
    .fil4 {fill:#70084A}
    .fil0 {fill:#8C125F}
    .fil1 {fill:#BF1B83}
    .fil2 {fill:#CB218E}
    .fil5 {fill:#E8219F}
    .fil6 {fill:#FF00A2}
   ]]>
  </style>
 </defs>
 <g id="Capa_x0020_1">
  <metadata id="CorelCorpID_0Corel-Layer"/>
  <g id="_2086184612528">
   <path class="fil0" d="M739.09 1256.74c13.07,-18.03 111.71,-261.09 132.75,-308.86 8.85,-20.09 17.26,-41 25.78,-61.66 -25.45,9.91 -51.75,19.18 -76.08,27.28 2.94,26.62 -14.74,51.24 -41.38,57.14l-57.12 11.82c-28.55,6.91 -57.13,-11.82 -63.01,-40.41 -6.91,-28.55 11.82,-57.11 40.39,-63.01l57.11 -11.83c18.72,-2.96 35.45,1.97 48.26,13.79 37.27,-12.24 77.72,-26.88 112.01,-41.7 14.55,-32.37 29.33,-66.44 42.49,-100.11l45.46 -108.06 0 -135.23c0,-24.65 12.76,-45.28 32.48,-57.12 -0.65,-4.08 -1.39,-8.13 -2.22,-12.15 -25.99,-0.52 -55.75,0.16 -82.48,0.79l0 19.22 0 74.86 -65 -37.43 -65.01 -37.43 31.52 -6.88c-2.97,-2 -5.9,-3.93 -8.86,-5.9 -2.95,-2 -6.87,-3.93 -9.83,-5.9 -42.41,-0.24 -96.05,-0.59 -151.48,-0.86 -1.73,0.89 -3.46,1.8 -5.16,2.77 -22.64,12.81 -42.35,30.56 -57.14,52.21 -8.85,12.82 -15.74,27.58 -20.65,42.4 -2.94,6.87 -4.96,14.74 -5.92,22.61 -0.97,4.91 -0.97,8.87 -1.98,13.79 -0.99,4.93 -0.99,10.85 -0.99,16.72 0,9.88 0.99,20.71 2.97,31.55 1.97,15.75 6.89,30.52 13.77,44.31 3.95,8.87 7.88,16.75 13.82,24.63 2.94,4.94 6.87,9.86 10.81,14.77 8.87,10.83 18.72,20.7 30.53,28.54 10.85,8.88 23.67,15.79 36.46,20.74 13.78,5.88 27.56,9.8 41.36,11.82 4.93,0.95 8.87,1.93 13.78,1.93 1,0 3.01,0 3.95,0 0.99,0 0.99,0 1.97,0l1.02 0c0.96,0 0.96,0 0.96,0 7.89,0 14.78,0 21.66,-0.98 7.86,0 14.78,-1.95 22.65,-2.97 11.85,-1.97 23.67,-5.86 34.48,-10.79 26.58,-11.83 50.24,-28.57 68.93,-50.25 9.86,-11.82 18.71,-24.61 25.65,-38.43 2.94,-6.88 5.87,-13.79 8.87,-20.68 2.93,-6.87 4.89,-13.79 6.87,-21.65 1.99,-6.89 2.94,-14.78 3.93,-21.67 1,-2.93 1,-6.9 1,-9.85 0,-1.02 0,-2.96 0,-3.95 0,0 0,0 1,0 0,13.8 0,26.59 -3,40.4 -1.94,14.77 -6.88,29.56 -12.79,43.34 -11.81,28.56 -30.53,53.19 -54.16,72.88 -20.71,17.75 -45.32,30.54 -70.92,38.43 -21.68,6.88 -44.33,9.85 -66.98,8.85 -25.62,-0.96 -51.19,-6.87 -76.82,-21.66 -24.63,-10.81 -48.26,-26.61 -66.98,-47.27 -9.85,-10.82 -17.73,-21.68 -25.62,-33.49 -7.87,-12.81 -14.77,-26.61 -19.68,-40.39 -2.96,-6.89 -4.94,-14.8 -6.87,-22.67 -2.02,-6.87 -2.98,-14.77 -3.99,-21.66 -1.96,-12.79 -2.93,-24.61 -1.96,-36.42 1.96,-28.57 8.85,-57.14 20.68,-82.75 7.97,-16.63 17.52,-31.65 29.04,-45.48 -44.64,-0.1 -87.23,-0.09 -122.62,0.15 -0.71,3.59 -1.38,7.2 -1.96,10.84 19.72,11.85 32.52,32.51 32.52,57.14l0 196.99c0,4.31 -0.42,8.53 -1.21,12.64 19.42,46.27 38.63,92.54 58.63,139.3 29.77,69.62 58.41,138.48 87.53,206.37l86.78 206.53zm350.55 -826.37l0.4 -1.88 -4.86 0.97c1.51,0.26 2.99,0.56 4.46,0.91zm-657.87 -2.93c-19.17,0.33 -33.64,0.81 -41.61,1.46l6.56 15.64c9.64,-8.39 21.65,-14.01 34.78,-15.6l0.26 -1.49zm386.82 162.04l18.72 -26.62 0 26.62 -18.72 0zm28.57 73.87l18.7 0c4.92,0 9.85,-3.95 9.85,-9.87l0 -29.51 10.84 -0.03c4.93,0 9.85,-3.94 9.85,-9.84l0 -14.79c0,-4.94 -3.96,-9.83 -9.85,-9.83l-10.84 0 0 -79.79c0,-4.93 -3.94,-9.86 -9.85,-9.86l-20.69 0c-2.93,0 -5.9,1.97 -7.86,3.95l-65.01 92.59c-0.98,1.97 -1.98,3.95 -1.98,5.92l0 12.8c0,4.91 3.93,9.84 9.84,9.84l57.15 0 0 29.55c0,4.92 3.93,8.87 9.85,8.87zm-165.49 -43.35l-15.76 14.78c-1.97,1.97 -2.94,3.92 -2.94,6.89l0 11.81c0,4.95 3.95,9.87 9.87,9.87l91.58 0c4.91,0 9.84,-3.95 9.84,-9.87l0 -15.75c0,-4.93 -3.93,-9.84 -9.84,-9.84l-40.37 -0.01c26.57,-26.6 46.28,-49.23 46.28,-78.79 0,-13.81 -4.93,-25.61 -12.8,-35.46 -6.91,-7.88 -19.7,-16.74 -40.41,-16.74 -17.71,0 -34.46,5.92 -47.27,16.74 -2.93,2.94 -3.94,7.88 -2.93,11.81l5.92 13.8c0.96,2.97 3.9,4.9 6.87,5.91 2.96,0.99 5.93,0 8.9,-1.97 4.89,-3.94 13.77,-9.85 24.58,-9.85 8.88,0 18.72,1.95 18.72,18.7 -0.01,17.73 -14.79,34.48 -50.24,67.96z"/>
   <path class="fil1" d="M589.43 79.44c-3.09,11.72 -85.4,150.19 -99.25,174.33l-75.35 131.01c-8.05,13.28 -17.96,28.41 -24.67,44.12 7.97,-0.64 22.44,-1.12 41.61,-1.46 26.21,-154.89 161.78,-273.31 324.75,-273.31 81.9,0 157.03,30.27 214.83,80.2 -42.6,-73.24 -84.96,-146.75 -88.1,-155.45l-3.74 -2.62c-14.79,0.62 -30.44,1.12 -43.56,1.21l-0.1 0 -1.08 0.01 -0.03 0 -1.15 0.01c-27.09,0.07 -54.13,0.91 -81.32,0.9 -31.14,-0.01 -139.21,1.3 -162.86,1.06zm-112.63 347.5c35.4,-0.24 77.98,-0.26 122.62,-0.15 4.17,-5.02 8.61,-9.88 13.32,-14.59 21.67,-21.68 47.3,-39.4 74.86,-50.26 29.52,-11.8 61.06,-16.72 92.56,-15.74 14.78,0 29.56,1.97 44.33,5.91 6.91,1.97 12.82,3.95 19.7,5.9 6.91,2 13.8,4.94 20.69,7.9 6.89,2.91 13.77,6.89 20.68,10.83 6.88,3.92 13.77,7.88 19.69,12.81 5.94,4.92 11.82,9.8 17.73,14.77l30.54 -32.51 0 55.62c26.73,-0.63 56.49,-1.32 82.48,-0.79 -26.57,-129.95 -141.9,-228.18 -279.48,-228.18 -138.01,0 -253.64,97.96 -279.73,228.49zm208.07 0.17c55.43,0.27 109.07,0.62 151.48,0.86l-0.03 -0.02c-2.95,-1.99 -6.92,-3.94 -9.85,-4.93 -5.88,-1.98 -11.83,-4.95 -17.73,-6.92 -4.92,-0.94 -9.81,-2.94 -15.75,-3.94 -3.93,-0.97 -7.85,-0.97 -11.82,-1.94 -4.91,0 -9.84,-1 -15.76,-1 -5.9,0 -11.84,-0.98 -17.72,0 -7.9,1 -15.78,1.97 -23.63,3.93 -13.82,3.44 -26.88,7.69 -39.19,13.96zm397.6 1.94c-0.5,-1.61 -1.08,-3.27 -1.76,-4.98 0.3,1.62 0.61,3.24 0.89,4.87l0.88 0.11zm-316.08 -15.9l0 0 0 0 0 0z"/>
   <path class="fil2" d="M196.59 652.05c4.4,3.78 20.59,22.17 25.17,28.48l109.98 124.35c6.7,7.16 8.96,8.67 14.93,16.22l247.76 280.7c21.96,25.76 115.97,124.13 121.41,140.16 16.9,10.25 9.44,10.45 20.28,21.33l2.97 -6.54 -86.78 -206.53c-29.13,-67.89 -57.76,-136.75 -87.53,-206.37 -20,-46.76 -39.21,-93.03 -58.63,-139.3 -5.9,30.61 -32.77,54.36 -65.76,54.36 -36.43,0 -66.98,-29.56 -66.98,-67l0 -195.99c0,-20.54 9.1,-38.99 23.33,-51.37l-6.56 -15.64c-77.95,-3.71 -271.47,-1.41 -369.97,-0.65 -3.8,0.03 -7.76,0.07 -11.46,0.71 -8.81,1.53 -1.31,-1.15 -6.44,2.33 8.64,13.07 13.23,15.81 24.4,28.15 5.12,5.65 7.53,10.08 12.57,15.71l157.33 176.88z"/>
   <path class="fil3" d="M739.09 1256.74l-2.97 6.54 1.82 7.39c4.07,-5.71 4.81,-7.33 9.56,-12.52 5.92,-6.46 5.4,-6.29 12.73,-10.66 2.7,-11.31 4.18,-9.29 13.86,-19.08 6.2,-6.26 8.5,-10.58 14.45,-16.97 11.9,-12.78 18.83,-22.31 29.57,-32.9 7.84,-7.73 9.2,-10.41 15.85,-18.59l74.88 -84.6c5.8,-6.63 9.67,-9.21 15.18,-15.93 5.55,-6.77 8.49,-11.02 14.43,-16.97l165.6 -187.73c6.28,-6.78 9.33,-8.79 15.15,-15.94l121.21 -133.68c4.27,-10.7 6.98,-12.66 15.14,-20.74 7.84,-7.77 10.74,-12.52 18.08,-20.58 31.13,-33.19 187.9,-215.53 202.91,-227.74 -1.34,-4.66 -2.37,-6.2 -2.37,-6.2l-384.12 -1.34 -0.4 1.88c29.44,7.07 50.96,32.88 50.05,64.54l0 196c0,36.45 -29.56,66.97 -67,66.97 -3.92,0 -6.89,0 -10.83,-0.98 -13.78,27.57 -30.52,54.2 -47.26,68.95 -22.65,20.05 -68.25,41.38 -116.97,60.36 -8.52,20.66 -16.93,41.57 -25.78,61.66 -21.05,47.77 -119.68,290.83 -132.75,308.86zm266.66 -625.62l-45.46 108.06c-13.16,33.67 -27.94,67.74 -42.49,100.11 31.86,-13.77 58.41,-27.7 72.17,-40.04 12.8,-10.82 25.6,-33.49 38.43,-57.1 -13.79,-12.83 -22.64,-30.54 -22.64,-50.28l0 -60.76z"/>
   <path class="fil4" d="M882.47 76.14l-0.22 0.01c3.16,8.76 46.43,84.12 89.62,158.63 55.45,48.09 94.86,114.32 108.84,189.3 0.68,1.71 1.27,3.37 1.76,4.98 0.91,0.12 1.82,0.26 2.72,0.41l4.86 -0.97 384.12 1.34c-5.41,-16.47 -19.38,-36.45 -29.09,-53.17 -9.31,-16.04 -18.7,-33.28 -28.46,-49.72 -10.42,-17.54 -54.32,-88.74 -56.31,-102.2 -9.74,-6.86 -70.22,-116.34 -84.5,-141.55 -6.71,-11.84 -20.71,-39.74 -30.02,-46.36 -4.74,11.42 -15.91,13.53 -30.93,16.22l-123.68 13.88 -2.37 0.16 -2.41 0.16 -0.01 0 -2.43 0.16 -0.01 0 -2.47 0.16 -0.03 0.01 -2.48 0.16 -0.04 0 -2.51 0.17 -0.05 0 -2.52 0.17 -0.07 0.01 -2.52 0.17 -0.09 0 -2.54 0.17 -0.11 0.01 -2.54 0.17 -0.14 0.01 -2.54 0.17 -0.17 0.01 -2.54 0.17 -0.19 0.01 -8.06 0.52 -0.28 0.01c-24.35,1.55 -50.99,3.12 -76.52,4.09l-1.92 0.08 -1 0.03 -1.9 0.07 -1 0.03 -2.89 0.1 -1.88 0.07 -1 0.03 -1.88 0.06 -0.98 0.03 -1.86 0.05 -0.98 0.03 -1.86 0.05 -0.95 0.03 -1.86 0.05 -0.94 0.03 -1.86 0.04c-13.22,0.3 -25.64,0.39 -36.62,0.15 -8.61,0.5 -19.79,1.09 -31.69,1.61z"/>
   <path class="fil5" d="M2.3 431.3c5.14,-3.49 -2.37,-0.81 6.44,-2.33 3.71,-0.64 7.66,-0.68 11.46,-0.71 98.49,-0.76 292.02,-3.06 369.97,0.65 6.71,-15.71 16.62,-30.84 24.67,-44.12l75.35 -131.01c13.84,-24.15 96.16,-162.61 99.25,-174.33 -22.76,-2.7 -74.69,-0.86 -97.56,-1.77l-184.41 -18.22c-26.69,-5.61 -68.83,-4.28 -76.22,-22.57 -9.51,9.16 -7.14,6.72 -19.92,22.65l-210.34 366.49c-0.81,7.78 -2.23,-0.03 1.32,5.28z"/>
   <path class="fil6" d="M231.24 36.88c7.39,18.29 49.53,16.96 76.22,22.57l184.41 18.22c22.88,0.91 74.8,-0.93 97.56,1.77 23.64,0.24 131.72,-1.07 162.86,-1.06 27.18,0.01 54.23,-0.83 81.32,-0.9 24.83,-0.07 60,-1.75 80.56,-2.95 51.28,1 126.8,-4.23 177.02,-7.6l123.68 -13.88c15.02,-2.69 26.19,-4.79 30.93,-16.22 -23.94,-18.2 -98.66,-20.51 -134.47,-23.79 -23.31,-2.14 -136.93,-5.82 -146.26,-10.74 -18.93,4.64 -158.86,-1.69 -190.87,-1.99 -63.16,-0.62 -128.61,-0.41 -191.23,1.58 -58.53,1.86 -323.96,7.36 -351.7,34.99z"/>
  </g>
 </g>
</svg>
