<?xml version="1.0" encoding="UTF-8"?>
<!DOCTYPE svg PUBLIC "-//W3C//DTD SVG 1.1//EN" "http://www.w3.org/Graphics/SVG/1.1/DTD/svg11.dtd">
<!-- Creator: CorelDRAW 2020 (64-Bit Versión de evaluación) -->
<svg xmlns="http://www.w3.org/2000/svg" xml:space="preserve" width="22.5139mm" height="19.375mm" version="1.1" style="shape-rendering:geometricPrecision; text-rendering:geometricPrecision; image-rendering:optimizeQuality; fill-rule:evenodd; clip-rule:evenodd"
viewBox="0 0 412.06 354.61"
 xmlns:xlink="http://www.w3.org/1999/xlink"
 xmlns:xodm="http://www.corel.com/coreldraw/odm/2003">
 <defs>
  <style type="text/css">
   <![CDATA[
    .fil3 {fill:#630E44}
    .fil4 {fill:#70084A}
    .fil0 {fill:#8C125F}
    .fil1 {fill:#BF1B83}
    .fil2 {fill:#CB218E}
    .fil5 {fill:#E8219F}
    .fil6 {fill:#FF00A2}
   ]]>
  </style>
 </defs>
 <g id="Capa_x0020_1">
  <metadata id="CorelCorpID_0Corel-Layer"/>
  <g id="_2086346988000">
   <path class="fil0" d="M206.26 350.72c3.65,-5.03 31.17,-72.86 37.05,-86.19 4.07,-9.25 7.81,-19.13 11.91,-28.28 -3.9,1.88 -8.2,2.91 -12.71,2.91l-32.96 0 -8.18 0 -32.96 -0c-3.49,0 -6.85,-0.63 -10,-1.79 8.02,18.79 15.76,37.38 23.62,55.71l24.22 57.64zm67.08 -157.16l0 -0.01 -1.28 -10.16 -5.77 -45.73c2.73,-5.04 9.8,-11.25 15.81,-15.28 0.35,0.33 0.82,0.55 1.35,0.55l19.72 0 0.08 -0c0.4,-1.12 0.73,-2.23 0.95,-3.34l-2.04 0.41c-3.44,-0.56 -8.08,-0.83 -13.25,-0.93l-4.68 0 -0.02 -0.05c-9.73,-0.02 -20.5,0.38 -28.35,0.48 5.56,4.9 9.51,9.71 9.87,13.73l7.61 60.33zm7.37 -17.51l2.01 -4.78c-3.2,-3.15 -5.16,-7.52 -5.05,-12.34 0.21,-9.43 7.93,-16.93 17.36,-16.93l0.01 0 2.11 -5.01c-0.7,-0.08 -1.4,-0.13 -2.12,-0.14 -12.22,-0.21 -22.29,9.65 -22.5,21.65 -0.13,7.06 3.12,13.41 8.19,17.55zm4.71 -11.21l0.86 -2.05 -1.12 0c0,0.68 0.09,1.37 0.26,2.05zm2.78 -6.6l1.89 -4.49c0.01,-0.42 0.22,-0.83 0.43,-1.24 0.09,-0.17 0.17,-0.31 0.27,-0.42l1.69 -4.02c-0.44,0.08 -0.88,0.23 -1.32,0.37 -1.07,0.22 -1.93,0.64 -2.57,1.29 -0.64,0.42 -1.28,1.07 -1.72,1.93 -0.42,0.64 -0.64,1.5 -0.64,2.57 0,0.86 0,1.5 0.43,2.15 0.21,0.64 0.64,1.07 1.07,1.5l0.21 0.21 0 0 -0.21 -0.21c0,0 0,0 0.21,0.21l0.25 0.17zm4.89 -11.63l0.23 -0.54 -0.23 0 0 0.54zm-138.9 -27.52c-21.56,-0 -39.54,0.14 -45.32,0.61l1.36 3.23 14.54 0c0.69,0 1.29,-0.35 1.63,-0.89 7.21,4.37 18.66,12.1 18.21,15.68l-5.18 41.09 -1.32 10.41 -0 -0 7.06 -55.97c0.37,-4.13 3.97,-9.1 9.01,-14.14zm-38.11 17.76l2.2 5.23c8.67,0.86 15.49,8.4 15.29,17.28 -0.09,3.9 -1.46,7.47 -3.7,10.31l2 4.76c3.88,-3.91 6.31,-9.24 6.42,-15.08 0.43,-12.22 -9.43,-22.29 -21.65,-22.51l-0.55 -0zm5.03 11.98l2.35 5.6 0.89 0c0,-1.07 -0.22,-1.93 -0.65,-2.79 -0.43,-0.85 -0.86,-1.5 -1.72,-2.14 -0.26,-0.26 -0.55,-0.48 -0.88,-0.67zm116.49 16.77c-0.4,17.63 -14.82,31.63 -32.44,31.63 -17.62,-0.4 -32.03,-14.81 -31.63,-32.44 0.39,-17.62 14.81,-31.64 32.43,-31.64 17.62,0 32.03,14.82 31.64,32.44zm-31.64 -42.04c-22.82,-0.4 -41.64,18.01 -42.04,40.44 -0.4,22.83 18.02,41.65 40.44,42.05 22.82,0.4 41.65,-18.03 42.05,-40.44 0.8,-22.83 -17.62,-41.65 -40.45,-42.04zm-3.2 36.44c-0.4,0 -0.81,-0.4 -1.21,-0.4 -1.2,-0.4 -2,-0.81 -2.8,-1.21 -0.8,-0.41 -1.2,-0.81 -1.61,-1.6 -0.4,-0.4 -0.4,-1.21 -0.4,-1.6 0,-0.81 0.4,-1.61 0.8,-2.4 0.4,-0.8 0.8,-1.21 1.6,-1.61 0.8,-0.39 1.59,-0.79 2.8,-1.19 0.4,0 0.4,0 0.81,0l0 10.01zm16.41 6.8c-0.8,-0.79 -1.6,-1.6 -2.4,-2 -0.8,-0.4 -2,-1.2 -3.2,-1.61 -1.21,-0.4 -2.4,-0.8 -4.01,-1.21 -0.39,0 -0.39,0 -0.8,-0.39l0 -11.61c3.2,0.8 4.81,2.8 5.21,6.41l6.41 0c0,-2.01 -0.4,-3.61 -1.21,-5.2 -0.8,-1.61 -1.6,-2.81 -3.2,-4.01 -1.2,-1.2 -2.81,-2 -4.81,-2.4 -0.8,-0.4 -1.6,-0.4 -2.4,-0.4l0 -3.61 -6.41 0.01 0 3.61c-1.2,0 -2.4,0.4 -3.6,0.8 -2,0.4 -3.61,1.2 -4.81,2.4 -1.2,0.8 -2.4,2.01 -3.2,3.61 -0.8,1.2 -1.2,2.8 -1.2,4.8 0,1.6 0,2.8 0.8,4 0.4,1.2 1.2,2 2.01,2.81l0.4 0.39 0 0 -0.4 -0.39c0,0 0,0 0.4,0.39 1.2,0.8 2.4,1.61 4.01,2.41 1.61,0.8 3.2,1.21 5.21,1.61l0 0c2.4,0.39 4,1.19 5.61,1.6l0.39 -0.01c1.21,0.4 2.41,0.8 3.21,1.21 0.8,0.4 1.6,1.2 2,2 0.4,0.8 0.81,1.6 0.81,2.41l0 0 0 0 0 0 0 0 0 0c-0.4,3.2 -2.01,4 -2.81,4.41 -0.8,0.39 -1.6,0.8 -2.8,1.2 -0.41,0 -0.41,0 -0.8,0l0 -8.81c-0.41,0 -0.41,-0.4 -0.8,-0.4 -1.61,-0.8 -3.22,-1.21 -5.21,-2l0 11.2c-0.4,0 -0.4,0 -0.8,0 -1.2,-0.4 -2.39,-0.8 -3.2,-1.6 -0.8,-0.81 -1.6,-1.61 -2.41,-2.8 -0.4,-1.2 -0.79,-2.41 -1.19,-3.61l-6.41 0c0,2 0.4,4 1.2,6.01 0.81,1.6 2.01,3.2 3.21,4.41 1.59,1.2 3.19,2 5.2,2.8 1.2,0.4 2.4,0.8 3.6,0.8l0 4 6.41 -0 0 -4c1.2,0 2.4,-0.4 3.6,-0.79 2,-0.4 3.61,-1.21 4.81,-2.4 1.2,-1.21 2.4,-2.41 3.2,-4 0.8,-1.61 1.21,-3.21 1.21,-5.21 0,-1.6 0,-2.81 -0.41,-4 0.81,-0.8 0.41,-2 -0.4,-2.8z"/>
   <path class="fil1" d="M164.49 22.17c-0.86,3.27 -23.83,41.91 -27.7,48.65l-13.34 23.19c2.41,-1.11 5.71,-3.73 7.13,-3.73 1.77,-0.23 3.77,0.88 4.87,2.43 0.89,1.1 1.33,2.44 0.89,4.2 -0.23,1.1 -2.44,5.98 -2.44,5.98l-8.61 16.24c-0.17,-0.04 -0.33,-0.07 -0.52,-0.07l-15.62 0 -0.27 0.63c5.78,-0.47 23.75,-0.61 45.32,-0.61 8.22,-8.22 20.3,-16.63 28.54,-21.94 0.49,0.24 1.02,0.37 1.6,0.37l36.84 0c0.65,0 1.26,-0.18 1.79,-0.48 9.08,5.38 23.35,14.05 32.89,22.45 7.85,-0.1 18.62,-0.5 28.35,-0.48l-8.55 -17.89c0,0 -1.32,-2.88 -1.54,-4.2 -0.44,-1.77 0,-3.1 0.88,-4.2 1.11,-1.55 3.09,-2.66 4.87,-2.43 1.55,0.22 5.3,3.09 7.73,3.98l0.21 -0.16c-13.8,-23.63 -40.01,-68.42 -41.33,-72.08l-1.05 -0.73c-4.13,0.17 -8.5,0.31 -12.16,0.34l-0.03 0 -0.3 0 -0.01 0 -0.32 0c-7.56,0.02 -15.11,0.25 -22.69,0.25 -8.69,-0 -38.85,0.36 -45.45,0.3zm124.42 96.89c5.17,0.1 9.81,0.37 13.25,0.93 -0.09,-0.3 -0.19,-0.61 -0.3,-0.93l-12.95 0zm-68.8 -28.75l-34.23 0 -14.38 -30.73c0,0 -2.44,-5.31 -2.88,-7.52 -0.88,-3.31 0,-5.75 1.55,-7.51 2.21,-2.66 5.53,-4.43 8.85,-4.21 2.88,0.22 9.29,5.53 13.71,7.08 3.1,-2.43 7.3,-6.86 11.72,-6.86l0 0 0 0c4.42,0 8.4,4.43 11.72,6.86 4.42,-1.55 11.05,-6.85 13.71,-7.08 3.32,-0.22 6.64,1.33 8.62,4.21 1.55,1.99 2.43,4.2 1.77,7.51 -0.66,2.21 -4.42,10.84 -4.42,10.84l-15.75 27.41z"/>
   <path class="fil2" d="M54.86 181.97c1.23,1.06 5.75,6.19 7.02,7.95l30.69 34.7c1.87,2 2.5,2.42 4.17,4.53l69.14 78.33c6.13,7.19 32.36,34.64 33.88,39.11 4.72,2.86 2.64,2.92 5.66,5.95l0.83 -1.82 -24.22 -57.64c-7.87,-18.34 -15.6,-36.92 -23.62,-55.71 -12.81,-4.72 -22.07,-18.24 -22.07,-34.03l1.78 -14.14 0 0 -1.61 12.76 -17.42 0 -4.65 0 -18.36 -0c-9.95,0 -17.91,-9.07 -17.91,-20.13l4.86 -39.37c0.57,-5.93 13.24,-15.17 20.79,-19.99 0.33,0.27 0.76,0.44 1.23,0.44l5.18 0 -1.36 -3.23c-21.75,-1.03 -75.76,-0.39 -103.25,-0.18 -1.06,0.01 -2.17,0.02 -3.2,0.2 -2.46,0.43 -0.36,-0.32 -1.8,0.65 2.41,3.65 3.69,4.41 6.81,7.86 1.43,1.58 2.1,2.81 3.51,4.39l43.91 49.36zm77.01 -7.53l-2 -4.76c-3.18,4.04 -8.12,6.62 -13.66,6.62 -9.43,-0.21 -17.15,-7.92 -16.93,-17.36 0.21,-9.43 7.93,-16.93 17.36,-16.93 0.55,0 1.1,0.03 1.64,0.08l-2.2 -5.23c-11.97,0.1 -21.74,9.84 -21.95,21.66 -0.21,12.22 9.64,22.29 21.65,22.5 6.28,0.11 11.99,-2.44 16.09,-6.57zm-8.4 -20.01l-2.35 -5.6c-0.49,-0.28 -1.05,-0.49 -1.69,-0.61 -0.43,-0.21 -0.86,-0.21 -1.29,-0.21l0 -1.93 -3.43 0 0 1.93c-0.64,0 -1.29,0.22 -1.93,0.43 -1.07,0.22 -1.93,0.64 -2.57,1.29 -0.65,0.43 -1.28,1.07 -1.72,1.93 -0.42,0.64 -0.64,1.5 -0.64,2.57 0,0.86 0,1.5 0.42,2.15 0.21,0.64 0.65,1.07 1.07,1.5l0.22 0.21 0 0 -0.22 -0.21c0,0 0,0 0.22,0.21 0.64,0.43 1.28,0.86 2.14,1.29 0.86,0.43 1.71,0.65 2.79,0.86l0 0c1.28,0.22 2.15,0.64 3,0.86l0.21 -0c0.65,0.21 1.29,0.43 1.72,0.64 0.42,0.21 0.86,0.64 1.07,1.07 0.22,0.43 0.43,0.85 0.43,1.29l0 0 0 0 0 0 0 0 0 0c-0.21,1.71 -1.07,2.14 -1.5,2.36 -0.43,0.21 -0.86,0.43 -1.51,0.64 -0.21,0 -0.21,0 -0.42,0l0 -4.72c-0.22,0 -0.22,-0.21 -0.43,-0.21 -0.86,-0.43 -1.71,-0.64 -2.78,-1.07l0 6.01c-0.22,0 -0.22,0 -0.43,0 -0.65,-0.21 -1.29,-0.43 -1.72,-0.86 -0.43,-0.43 -0.85,-0.85 -1.29,-1.5 -0.21,-0.64 -0.43,-1.29 -0.64,-1.93l-3.42 0c0,1.07 0.22,2.14 0.64,3.21 0.43,0.86 1.07,1.72 1.71,2.36 0.86,0.64 1.71,1.07 2.79,1.5 0.64,0.22 1.28,0.43 1.93,0.43l0 2.14 3.43 0 0 -2.15c0.64,0 1.28,-0.21 1.93,-0.42 1.07,-0.21 1.92,-0.65 2.57,-1.28 0.64,-0.64 1.29,-1.29 1.71,-2.15 0.43,-0.86 0.64,-1.71 0.64,-2.79 0,-0.85 0,-1.5 -0.22,-2.14 0.43,-0.43 0.22,-1.07 -0.21,-1.5 -0.43,-0.43 -0.86,-0.86 -1.29,-1.08 -0.43,-0.22 -1.07,-0.64 -1.71,-0.86 -0.64,-0.22 -1.29,-0.43 -2.15,-0.64 -0.21,0 -0.21,0 -0.42,-0.22l0 -6.21c1.71,0.43 2.58,1.5 2.79,3.43l2.54 0zm-8.54 1.94c-0.22,0 -0.43,-0.22 -0.64,-0.22 -0.64,-0.21 -1.08,-0.42 -1.5,-0.64 -0.43,-0.21 -0.64,-0.43 -0.85,-0.85 -0.22,-0.22 -0.22,-0.64 -0.22,-0.86 0,-0.43 0.22,-0.86 0.43,-1.28 0.22,-0.43 0.42,-0.65 0.86,-0.86 0.43,-0.21 0.86,-0.43 1.5,-0.64 0.21,0 0.21,0 0.43,0l0 5.36z"/>
   <path class="fil3" d="M206.26 350.72l-0.83 1.82 0.51 2.06c1.13,-1.59 1.34,-2.05 2.67,-3.49 1.65,-1.8 1.51,-1.76 3.55,-2.98 0.75,-3.16 1.17,-2.59 3.87,-5.32 1.73,-1.75 2.37,-2.95 4.03,-4.74 3.32,-3.57 5.25,-6.23 8.25,-9.18 2.19,-2.16 2.57,-2.91 4.42,-5.19l20.9 -23.61c1.62,-1.85 2.7,-2.57 4.24,-4.45 1.55,-1.89 2.37,-3.08 4.03,-4.73l46.21 -52.39c1.75,-1.89 2.6,-2.45 4.23,-4.45l33.83 -37.31c1.19,-2.99 1.95,-3.53 4.22,-5.79 2.19,-2.17 3,-3.49 5.05,-5.74 8.69,-9.26 52.44,-60.15 56.63,-63.56 -0.38,-1.3 -0.66,-1.73 -0.66,-1.73l-107.2 -0.37c-0.22,1.11 -0.55,2.22 -0.95,3.34 0.59,-0.02 1.12,-0.31 1.46,-0.76 8.01,4.69 23.45,14.05 24.04,20.3l4.64 39.38c0,11.06 -7.96,20.12 -17.91,20.12l-18.36 0 -4.65 0 -18.07 -0 -1.06 -8.41 -0 0.01 1.23 9.78c0,14.82 -7.98,27.44 -19.36,32.91 -4.1,9.15 -7.84,19.03 -11.91,28.28 -5.87,13.33 -33.4,81.16 -37.05,86.19zm90.88 -213.73l-2.11 5.01c9.42,0.01 17.13,7.93 16.93,17.36 -0.22,9.43 -7.94,16.93 -17.37,16.93 -4.61,-0.1 -8.81,-2 -11.88,-5.02l-2.01 4.78c3.7,3.02 8.39,4.87 13.46,4.96 12.22,0.22 22.29,-9.65 22.51,-21.65 0.4,-11.5 -8.32,-21.1 -19.53,-22.37zm-3.82 9.08l-0.23 0.54 0 1.39c-0.2,0 -0.41,0.02 -0.61,0.06l-1.69 4.02c0.15,-0.18 0.33,-0.31 0.58,-0.44 0.43,-0.21 0.85,-0.43 1.5,-0.64 0.22,0 0.22,0 0.43,0l0 5.36c-0.21,0 -0.43,-0.22 -0.64,-0.22 -0.64,-0.22 -1.07,-0.43 -1.5,-0.65 -0.43,-0.21 -0.64,-0.43 -0.86,-0.85 -0.22,-0.22 -0.22,-0.64 -0.22,-0.86l0 -0.04 -1.89 4.49c0.56,0.37 1.15,0.75 1.89,1.12 0.86,0.43 1.71,0.65 2.78,0.86l0 0c1.29,0.21 2.14,0.64 3,0.86l0.21 -0c0.65,0.21 1.29,0.43 1.72,0.64 0.42,0.21 0.86,0.64 1.07,1.07 0.22,0.43 0.43,0.85 0.43,1.29l0 0 0 0 0 0 0 0 0 0c-0.21,1.71 -1.08,2.14 -1.5,2.36 -0.43,0.21 -0.85,0.43 -1.5,0.64 -0.22,0 -0.22,0 -0.43,0l0 -4.72c-0.22,0 -0.22,-0.21 -0.43,-0.21 -0.86,-0.43 -1.72,-0.64 -2.79,-1.07l0 6c-0.22,0 -0.22,0 -0.43,0 -0.64,-0.22 -1.28,-0.43 -1.71,-0.86 -0.43,-0.43 -0.86,-0.85 -1.29,-1.5 -0.22,-0.64 -0.43,-1.29 -0.64,-1.93l-2.31 0 -0.86 2.05c0.1,0.39 0.23,0.78 0.38,1.17 0.44,0.86 1.08,1.72 1.72,2.36 0.86,0.64 1.72,1.07 2.79,1.5 0.64,0.22 1.28,0.43 1.92,0.43l0 2.14 3.43 -0.01 0 -2.15c0.64,0 1.29,-0.21 1.93,-0.42 1.07,-0.21 1.93,-0.65 2.58,-1.28 0.64,-0.65 1.29,-1.29 1.71,-2.14 0.43,-0.86 0.64,-1.72 0.64,-2.79 0,-0.85 0,-1.5 -0.21,-2.14 0.43,-0.43 0.21,-1.07 -0.22,-1.5 -0.43,-0.43 -0.86,-0.86 -1.29,-1.07 -0.42,-0.22 -1.07,-0.64 -1.71,-0.86 -0.65,-0.22 -1.29,-0.43 -2.14,-0.64 -0.22,0 -0.22,0 -0.43,-0.21l0 -6.21c1.71,0.43 2.58,1.5 2.79,3.43l3.43 0c0,-1.07 -0.22,-1.93 -0.65,-2.78 -0.43,-0.86 -0.86,-1.5 -1.71,-2.15 -0.65,-0.64 -1.5,-1.07 -2.58,-1.28 -0.43,-0.22 -0.85,-0.22 -1.29,-0.22l0 -1.93 -3.2 0z"/>
   <path class="fil4" d="M246.27 21.25l-0.06 0c1.32,3.66 27.76,49.04 41.62,72.84 1.75,-1.36 4.08,-3.59 6.41,-3.59l0 0 0 0c2.43,0 4.86,2.43 6.63,3.76 2.43,-0.89 6.19,-3.98 7.74,-3.98 1.99,-0.23 3.76,0.88 4.86,2.43 0.89,1.1 1.33,2.44 0.89,4.2 -0.23,1.1 -2.44,5.98 -2.44,5.98l-9.1 16.17 -0.98 0c0.11,0.32 0.21,0.63 0.3,0.93l2.04 -0.41 107.2 0.37c-1.51,-4.6 -5.41,-10.17 -8.12,-14.84 -2.6,-4.47 -5.22,-9.29 -7.94,-13.88 -2.91,-4.89 -15.16,-24.77 -15.71,-28.52 -2.72,-1.91 -19.6,-32.47 -23.58,-39.5 -1.87,-3.31 -5.78,-11.09 -8.38,-12.94 -1.32,3.19 -4.44,3.78 -8.63,4.53l-34.51 3.87 -0.66 0.04 -0.67 0.05 -0 0 -0.68 0.05 -0 0 -0.69 0.05 -0.01 0 -0.69 0.05 -0.01 0 -0.7 0.05 -0.01 0 -0.7 0.05 -0.02 0 -0.7 0.05 -0.03 0 -0.71 0.05 -0.03 0 -0.71 0.05 -0.04 0 -0.71 0.05 -0.05 0 -0.71 0.05 -0.05 0 -2.25 0.15 -0.08 0c-6.8,0.43 -14.23,0.87 -21.35,1.14l-0.53 0.02 -0.28 0.01 -0.53 0.02 -0.28 0.01 -0.81 0.03 -0.52 0.02 -0.28 0.01 -0.52 0.02 -0.27 0.01 -0.52 0.01 -0.27 0.01 -0.52 0.01 -0.27 0.01 -0.52 0.01 -0.26 0.01 -0.52 0.01c-3.69,0.08 -7.16,0.11 -10.22,0.04 -2.4,0.14 -5.52,0.3 -8.84,0.45z"/>
   <path class="fil5" d="M0.64 120.36c1.43,-0.97 -0.66,-0.23 1.8,-0.65 1.03,-0.18 2.14,-0.19 3.2,-0.2 27.49,-0.21 81.49,-0.85 103.25,0.18l0.27 -0.63 -4.1 0 -0.31 0.02 -7.11 -17.97c0,0 -1.33,-2.88 -1.55,-4.2 -0.44,-1.77 0,-3.1 0.89,-4.2 1.1,-1.55 3.09,-2.66 4.86,-2.43 1.55,0.22 5.31,3.09 7.74,3.98 1.77,-1.33 4.2,-3.76 6.63,-3.76l0 0 0 0c2.44,0 4.87,2.43 6.64,3.76 0.19,-0.07 0.4,-0.16 0.61,-0.25l13.34 -23.19c3.86,-6.74 26.84,-45.38 27.7,-48.65 -6.35,-0.75 -20.84,-0.24 -27.23,-0.49l-51.46 -5.08c-7.45,-1.57 -19.21,-1.2 -21.27,-6.3 -2.65,2.56 -1.99,1.88 -5.56,6.32l-58.7 102.28c-0.23,2.17 -0.62,-0.01 0.37,1.47z"/>
   <path class="fil6" d="M64.53 10.29c2.06,5.1 13.82,4.73 21.27,6.3l51.46 5.08c6.38,0.25 20.88,-0.26 27.23,0.49 6.6,0.07 36.76,-0.3 45.45,-0.3 7.59,0 15.13,-0.23 22.69,-0.25 6.93,-0.02 16.74,-0.49 22.48,-0.82 14.31,0.28 35.39,-1.18 49.4,-2.12l34.51 -3.87c4.19,-0.75 7.31,-1.34 8.63,-4.53 -6.68,-5.08 -27.53,-5.72 -37.53,-6.64 -6.51,-0.6 -38.21,-1.63 -40.82,-3 -5.28,1.29 -44.33,-0.47 -53.27,-0.56 -17.63,-0.17 -35.89,-0.11 -53.37,0.44 -16.33,0.52 -90.41,2.06 -98.15,9.76z"/>
  </g>
 </g>
</svg>
