<?xml version="1.0" encoding="UTF-8"?>
<!DOCTYPE svg PUBLIC "-//W3C//DTD SVG 1.1//EN" "http://www.w3.org/Graphics/SVG/1.1/DTD/svg11.dtd">
<!-- Creator: CorelDRAW 2020 (64-Bit Versión de evaluación) -->
<svg xmlns="http://www.w3.org/2000/svg" xml:space="preserve" width="22.5139mm" height="19.375mm" version="1.1" style="shape-rendering:geometricPrecision; text-rendering:geometricPrecision; image-rendering:optimizeQuality; fill-rule:evenodd; clip-rule:evenodd"
viewBox="0 0 1506.95 1296.85"
 xmlns:xlink="http://www.w3.org/1999/xlink"
 xmlns:xodm="http://www.corel.com/coreldraw/odm/2003">
 <defs>
  <style type="text/css">
   <![CDATA[
    .fil3 {fill:#630E44}
    .fil4 {fill:#70084A}
    .fil0 {fill:#8C125F}
    .fil1 {fill:#BF1B83}
    .fil2 {fill:#CB218E}
    .fil5 {fill:#E8219F}
    .fil6 {fill:#FF00A2}
   ]]>
  </style>
 </defs>
 <g id="Capa_x0020_1">
  <metadata id="CorelCorpID_0Corel-Layer"/>
  <g id="_2086475984032">
   <path class="fil0" d="M754.32 1282.64c13.34,-18.4 114.01,-266.47 135.49,-315.22 1.56,-3.55 3.11,-7.12 4.65,-10.7l-277.54 0c16.31,38.65 32.5,77.04 48.84,115.13l88.57 210.79zm294.24 -690.99l42.9 -101.98c7.32,-17.93 17.68,-35.36 21.04,-52.34l-7.46 1.49c-29.27,-4.77 -82.5,-3.73 -128.1,-2.66l0 39.54 36.34 0c20.31,0 36.35,16.04 35.27,36.35l0 79.61zm-169.95 -154.72c-59.38,-0.31 -151.33,-0.98 -239.44,-1.27l0 41.1 240.5 0 -1.06 0 0 -39.83zm-336.71 -1.4c-68.87,0.09 -124.56,0.67 -143.68,2.22l72.06 171.62 0 -97.33c0,-20.31 16.04,-36.35 36.35,-36.35l35.27 0 0 -40.16zm264.03 358.71c0,9.62 -8.55,18.17 -18.17,18.17l-58.79 0c-9.63,0 -18.17,-8.55 -18.17,-18.17l0 -155c0,-9.62 8.54,-18.17 18.17,-18.17l58.79 0c9.62,0 18.17,8.55 18.17,18.17l0 155z"/>
   <path class="fil1" d="M601.57 81.08c-3.15,11.96 -87.16,153.28 -101.29,177.92l-76.9 133.71c-8.21,13.55 -18.33,29 -25.17,45.03 19.12,-1.55 74.81,-2.13 143.68,-2.22l0 -103.07c0,-80.17 65.2,-145.37 145.37,-145.37l144.3 0c80.17,0 145.38,65.2 145.38,144.3l0 104.76c45.6,-1.07 98.83,-2.11 128.1,2.66 -4.22,-14.79 -17.57,-34.65 -25.44,-48.3l-1.24 -2.16 -1.43 -2.46 0 -0.01 -1.59 -2.73 -0.01 -0.02 -3.65 -6.27 -0.02 -0.05c-39,-67.01 -164.67,-280.92 -170.22,-296.3l-3.82 -2.68c-15.09,0.63 -31.07,1.14 -44.46,1.23l-0.1 0 -1.1 0.01 -0.03 0 -1.17 0.01c-27.64,0.07 -55.25,0.92 -82.99,0.92 -31.78,-0.01 -142.08,1.33 -166.21,1.08zm37.59 354.58c88.11,0.29 180.05,0.96 239.44,1.27l0 -109.82c0,-24.58 -20.31,-44.89 -44.89,-44.89l-149.66 0c-24.58,0 -44.89,20.31 -44.89,44.9l0 108.54z"/>
   <path class="fil2" d="M200.64 665.49c4.49,3.86 21.01,22.62 25.69,29.06l112.24 126.91c6.84,7.31 9.14,8.85 15.24,16.55l252.86 286.48c22.42,26.29 118.36,126.69 123.91,143.05 17.25,10.46 9.64,10.67 20.7,21.77l3.03 -6.67 -88.57 -210.79c-16.34,-38.09 -32.53,-76.48 -48.84,-115.13l-110.29 0c-20.31,0 -36.35,-16.04 -36.35,-36.35l0 -311 -72.06 -171.62c-79.56,-3.78 -277.07,-1.44 -377.59,-0.66 -3.88,0.03 -7.92,0.07 -11.7,0.72 -9,1.56 -1.33,-1.18 -6.57,2.38 8.82,13.34 13.5,16.13 24.91,28.73 5.22,5.76 7.68,10.29 12.82,16.04l160.57 180.53z"/>
   <path class="fil3" d="M754.32 1282.64l-3.03 6.67 1.85 7.54c4.15,-5.82 4.91,-7.48 9.75,-12.78 6.04,-6.59 5.52,-6.42 12.99,-10.88 2.76,-11.54 4.26,-9.48 14.14,-19.47 6.33,-6.39 8.67,-10.8 14.75,-17.32 12.14,-13.05 19.22,-22.77 30.18,-33.58 8.01,-7.89 9.39,-10.63 16.18,-18.98l76.42 -86.34c5.92,-6.77 9.87,-9.4 15.49,-16.26 5.66,-6.91 8.66,-11.25 14.73,-17.32l169.01 -191.59c6.41,-6.92 9.52,-8.97 15.46,-16.27l123.71 -136.44c4.36,-10.92 7.12,-12.92 15.45,-21.17 8,-7.93 10.96,-12.78 18.45,-21 31.77,-33.87 191.77,-219.97 207.09,-232.43 -1.37,-4.75 -2.42,-6.33 -2.42,-6.33l-392.03 -1.37c-3.36,16.98 -13.73,34.41 -21.04,52.34l-42.9 101.98 0 328.72c0,20.31 -16.03,36.35 -36.35,36.35l-117.76 0c-1.53,3.59 -3.09,7.16 -4.65,10.7 -21.48,48.75 -122.15,296.82 -135.49,315.22z"/>
   <path class="fil4" d="M900.65 77.7l-0.23 0.01c6.02,16.69 154.47,269.89 179.19,312.79 7.86,13.65 21.21,33.51 25.44,48.3l7.46 -1.49 392.03 1.37c-5.52,-16.81 -19.78,-37.2 -29.69,-54.27 -9.5,-16.37 -19.08,-33.96 -29.05,-50.74 -10.64,-17.9 -55.44,-90.57 -57.47,-104.3 -9.94,-7 -71.67,-118.73 -86.24,-144.46 -6.85,-12.09 -21.14,-40.56 -30.64,-47.32 -4.83,11.66 -16.24,13.81 -31.57,16.55l-126.22 14.16 -2.42 0.16 -2.46 0.17 -0.01 0 -2.48 0.17 -0.01 0 -2.52 0.17 -0.03 0.01 -2.53 0.17 -0.04 0 -2.56 0.17 -0.05 0 -2.57 0.17 -0.07 0.01 -2.58 0.17 -0.09 0 -2.59 0.17 -0.11 0.01 -2.6 0.17 -0.14 0.01 -2.59 0.17 -0.17 0.01 -2.59 0.17 -0.19 0.01 -8.23 0.54 -0.29 0.01c-24.85,1.59 -52.04,3.18 -78.09,4.18l-1.95 0.08 -1.02 0.03 -1.94 0.07 -1.02 0.03 -2.95 0.1 -1.91 0.07 -1.02 0.03 -1.91 0.06 -1 0.03 -1.9 0.05 -1 0.03 -1.9 0.05 -0.97 0.03 -1.9 0.05 -0.96 0.03 -1.9 0.04c-13.49,0.31 -26.17,0.39 -37.37,0.15 -8.79,0.52 -20.19,1.11 -32.34,1.64z"/>
   <path class="fil5" d="M2.34 440.19c5.24,-3.56 -2.42,-0.82 6.57,-2.38 3.78,-0.66 7.82,-0.69 11.7,-0.72 100.52,-0.78 298.03,-3.12 377.59,0.66 6.85,-16.04 16.96,-31.48 25.17,-45.03l76.9 -133.71c14.13,-24.65 98.14,-165.96 101.29,-177.92 -23.23,-2.76 -76.22,-0.88 -99.57,-1.81l-188.21 -18.59c-27.24,-5.73 -70.25,-4.37 -77.79,-23.04 -9.71,9.34 -7.29,6.86 -20.33,23.12l-214.67 374.04c-0.82,7.94 -2.28,-0.03 1.35,5.39z"/>
   <path class="fil6" d="M236 37.64c7.54,18.67 50.55,17.31 77.79,23.04l188.21 18.59c23.35,0.93 76.35,-0.95 99.57,1.81 24.13,0.24 134.43,-1.09 166.21,-1.08 27.74,0.01 55.35,-0.85 82.99,-0.92 25.34,-0.07 61.23,-1.79 82.22,-3.01 52.34,1.02 129.42,-4.32 180.66,-7.76l126.22 -14.16c15.33,-2.74 26.73,-4.89 31.57,-16.55 -24.43,-18.57 -100.7,-20.93 -137.24,-24.28 -23.8,-2.19 -139.75,-5.94 -149.28,-10.96 -19.32,4.73 -162.13,-1.72 -194.81,-2.03 -64.46,-0.63 -131.26,-0.41 -195.17,1.61 -59.73,1.9 -330.64,7.52 -358.95,35.71z"/>
  </g>
 </g>
</svg>
